{"glyphs":{"0":{"ha":986,"x_min":0,"x_max":0,"o":"m 90 488 l 90 488 b 421 0 90 224 233 1 l 421 0 b 753 488 611 1 753 224 l 753 488 b 421 972 753 749 611 971 l 421 972 b 90 488 233 971 90 749 z m 215 807 l 215 807 b 421 938 269 890 343 938 l 421 938 b 628 807 500 938 574 890 l 628 807 b 718 488 683 726 718 613 l 718 488 b 628 165 718 360 683 246 l 628 165 b 421 35 574 82 500 35 l 421 35 b 215 165 343 35 269 82 l 215 165 b 125 488 161 246 125 360 l 125 488 b 215 807 125 613 161 726 z "},"1":{"ha":465,"x_min":0,"x_max":0,"o":"m 239 18 l 239 18 b 256 0 239 8 247 0 l 256 0 b 274 18 267 0 274 8 l 274 953 l 274 953 b 256 971 274 961 267 971 l 256 971 b 239 953 247 971 239 961 z m 46 828 l 46 828 b 61 819 49 821 56 819 l 61 819 b 69 821 64 819 67 819 l 264 938 l 264 938 b 272 961 274 943 276 953 l 272 961 b 247 967 267 971 256 972 l 53 851 l 53 851 b 46 828 43 846 42 835 z "},"2":{"ha":819,"x_min":0,"x_max":0,"o":"m 67 7 b 81 0 69 1 75 0 l 82 0 l 86 0 l 647 0 b 664 18 656 0 664 8 b 647 35 664 28 656 35 l 124 35 l 560 431 b 664 661 629 492 664 576 b 583 871 664 735 636 811 b 353 972 522 938 438 972 b 143 892 278 972 204 946 l 94 846 b 93 821 88 840 86 828 b 118 821 100 814 110 814 l 167 865 b 353 938 219 913 286 938 b 557 846 426 938 503 906 b 629 661 604 793 629 726 b 538 456 629 586 597 511 l 68 32 b 67 7 61 25 61 14 z "},"3":{"ha":847,"x_min":0,"x_max":0,"o":"m 367 647 l 653 940 b 657 947 654 942 656 944 b 658 956 658 950 658 953 b 640 974 658 965 650 974 l 169 974 b 151 956 160 974 151 965 b 169 938 151 946 160 938 l 599 938 l 318 649 b 318 622 311 642 311 629 b 319 621 318 622 319 622 b 336 613 324 615 329 613 b 539 529 410 613 482 585 b 622 326 594 472 622 399 b 538 122 622 251 594 178 b 333 38 482 65 408 38 b 131 121 260 38 188 65 b 106 121 124 128 113 128 b 106 96 99 114 99 103 b 333 1 168 32 251 1 b 335 1 335 1 335 1 b 564 96 417 1 500 33 b 658 326 626 160 658 243 b 564 554 658 408 626 492 b 367 647 510 610 439 640 z "},"4":{"ha":922,"x_min":0,"x_max":0,"o":"m 653 18 b 671 0 653 8 663 0 b 689 18 682 0 689 8 l 689 207 l 774 207 b 792 225 785 207 792 214 b 774 242 792 235 785 242 l 689 242 l 689 951 l 689 954 b 688 958 689 956 688 957 b 685 963 686 960 686 961 b 671 971 682 967 676 971 b 660 967 667 971 664 969 l 657 964 l 71 235 b 74 211 65 228 67 218 b 85 207 78 208 81 207 l 88 207 l 653 207 z m 121 242 l 653 900 l 653 242 z "},"5":{"ha":840,"x_min":0,"x_max":0,"o":"m 318 0 b 547 96 401 0 485 32 b 643 325 611 158 643 242 b 550 553 643 408 611 490 b 319 647 486 617 403 647 b 126 583 251 647 183 626 l 168 936 l 625 936 b 643 954 635 936 643 943 b 625 972 643 963 635 972 l 156 972 b 146 969 151 972 149 971 b 133 954 140 968 135 963 l 85 544 b 88 531 83 539 85 535 b 89 529 88 531 88 529 b 92 526 89 528 90 526 b 115 528 99 521 111 521 b 319 611 174 583 246 611 b 522 528 394 611 467 583 b 607 325 579 472 607 397 b 522 121 607 251 579 178 b 318 36 467 65 392 36 b 115 121 246 36 172 65 b 90 121 108 128 97 128 b 90 96 83 114 83 101 b 318 0 154 32 238 0 z "},"6":{"ha":892,"x_min":0,"x_max":0,"o":"m 93 285 b 94 279 93 283 93 281 b 407 0 111 121 244 0 b 724 315 581 0 722 140 b 407 629 722 489 581 629 b 128 460 285 629 179 561 b 214 746 138 560 164 661 b 524 938 279 854 375 931 b 539 954 532 938 539 946 b 521 972 539 965 531 972 b 183 763 361 965 250 879 b 89 371 117 647 89 501 b 93 285 89 342 90 313 z m 128 315 b 407 594 128 469 253 594 b 689 315 563 594 686 469 b 407 35 686 160 563 35 b 128 315 253 35 128 160 z "},"7":{"ha":815,"x_min":0,"x_max":0,"o":"m 247 1 b 254 0 250 1 253 0 b 269 11 261 0 268 6 l 661 940 b 667 953 664 944 667 949 b 649 971 667 961 657 971 l 107 971 b 89 953 97 971 89 961 b 107 935 89 943 97 935 l 619 935 l 238 25 b 247 1 235 15 238 6 z "},"8":{"ha":875,"x_min":0,"x_max":0,"o":"m 193 779 b 304 606 193 703 238 636 b 76 308 174 569 76 450 b 386 0 76 138 217 0 b 696 308 557 0 696 138 b 468 606 696 450 599 569 b 578 779 532 636 578 703 b 386 972 578 886 492 972 b 193 779 279 972 193 886 z m 111 308 b 386 583 111 460 235 583 b 661 308 539 583 661 460 b 386 35 661 157 539 35 b 111 308 235 35 111 157 z m 228 779 b 386 938 228 867 299 936 b 543 779 472 936 543 867 b 386 622 543 693 472 622 b 228 779 299 622 228 693 z "},"9":{"ha":892,"x_min":0,"x_max":0,"o":"m 92 657 b 408 343 92 483 235 343 b 686 511 529 343 635 411 b 600 226 676 413 647 310 b 292 35 536 119 440 42 b 276 18 283 35 275 26 b 294 0 276 7 283 0 b 632 210 454 7 563 93 b 726 601 699 326 726 471 b 721 683 726 629 725 657 b 408 972 707 846 572 972 b 92 657 235 972 92 832 z m 126 657 b 408 938 126 813 253 938 b 686 685 553 938 672 828 l 686 683 l 686 678 b 688 657 688 671 688 664 b 408 378 688 503 563 378 b 126 657 253 378 126 503 z "},"\u0000":{"ha":694,"x_min":0,"x_max":0,"o":""},"B":{"ha":825,"x_min":0,"x_max":0,"o":"m 144 18 b 163 0 144 8 151 0 l 165 0 l 449 0 b 718 271 599 0 718 121 b 499 535 718 401 624 511 b 619 739 571 575 619 650 b 385 972 619 867 514 972 l 165 972 l 163 972 b 144 954 151 972 144 964 z m 179 35 l 179 504 l 449 504 b 682 271 579 504 682 399 b 449 35 682 140 579 35 z m 179 542 l 179 938 l 385 938 b 583 739 494 935 582 847 b 385 542 582 629 494 542 z "},"C":{"ha":1071,"x_min":0,"x_max":0,"o":"m 101 494 l 101 494 b 606 0 101 222 328 1 l 606 0 b 921 107 725 0 833 42 l 921 107 b 925 132 929 114 932 125 l 925 132 b 899 135 918 140 907 140 l 899 135 l 899 135 b 606 36 818 72 717 36 l 606 36 b 138 494 349 36 138 240 l 138 494 b 606 950 138 746 349 950 l 606 950 b 900 851 718 950 819 914 l 900 851 b 926 854 907 844 918 846 l 926 854 b 921 879 932 861 929 872 l 921 879 b 606 986 836 944 725 986 l 606 986 b 101 494 328 986 101 764 z "},"D":{"ha":999,"x_min":0,"x_max":0,"o":"m 144 18 b 163 0 144 8 151 0 l 164 0 l 349 0 b 835 488 618 0 835 218 b 349 972 835 754 618 972 l 164 972 l 163 972 b 144 954 151 972 144 964 z m 179 35 l 179 938 l 349 938 b 800 488 599 938 799 735 b 349 35 799 238 599 38 z "},"E":{"ha":824,"x_min":0,"x_max":0,"o":"m 165 0 l 679 0 b 696 18 689 0 696 8 b 679 35 696 28 689 35 l 179 35 l 179 469 l 619 469 b 636 488 629 469 636 476 b 619 504 636 496 629 504 l 179 504 l 179 938 l 679 938 b 696 954 689 938 696 944 b 679 972 696 964 689 972 l 164 972 l 163 972 l 161 972 b 144 954 150 971 144 963 l 144 18 b 161 0 144 8 150 0 l 164 0 z "},"F":{"ha":840,"x_min":0,"x_max":0,"o":"m 144 18 b 160 0 144 8 151 0 b 178 18 171 0 178 8 l 178 469 l 619 469 b 636 488 629 469 636 476 b 619 504 636 496 629 504 l 178 504 l 178 938 l 679 938 b 696 954 689 938 696 944 b 679 972 696 964 689 972 l 164 972 l 163 972 l 160 972 b 144 954 151 972 144 964 l 144 18 z "},"G":{"ha":1131,"x_min":0,"x_max":0,"o":"m 906 461 l 906 132 b 615 36 825 72 724 36 b 138 503 351 36 138 244 b 615 967 138 757 351 967 b 913 864 728 967 832 928 b 939 865 919 857 933 858 b 935 893 946 875 944 886 b 615 1001 849 961 736 1001 b 101 503 332 1001 101 778 b 615 0 101 225 332 1 b 935 108 736 0 849 42 b 940 118 938 111 939 114 l 940 121 b 942 125 942 122 942 124 l 942 478 b 925 497 942 489 935 497 l 922 497 l 607 497 b 589 478 599 497 589 489 b 607 461 589 469 599 461 z "},"H":{"ha":985,"x_min":0,"x_max":0,"o":"m 732 18 b 749 0 732 8 739 0 b 767 18 758 0 767 8 l 767 954 b 749 972 767 964 758 972 b 732 954 739 972 732 964 l 732 504 l 179 504 l 179 954 b 163 972 179 964 171 972 b 144 954 151 972 144 964 l 144 18 b 163 0 144 8 151 0 b 179 18 171 0 179 8 l 179 469 l 732 469 l 732 18 z "},"I":{"ha":424,"x_min":0,"x_max":0,"o":"m 154 18 l 154 18 b 172 0 154 7 161 0 l 172 0 b 189 18 181 0 189 7 l 189 954 l 189 954 b 172 972 189 965 181 972 l 172 972 b 154 954 161 972 154 965 l 154 18 z "},"J":{"ha":825,"x_min":0,"x_max":0,"o":"m 63 225 b 369 0 104 94 225 0 b 693 325 549 0 693 146 l 693 954 b 675 972 693 964 686 972 b 660 954 667 972 660 964 l 660 325 b 369 35 658 165 529 38 b 96 236 242 35 132 119 b 72 247 92 246 83 250 b 63 225 64 244 58 233 z "},"K":{"ha":993,"x_min":0,"x_max":0,"o":"m 144 18 b 163 0 144 8 151 0 b 181 18 171 0 181 8 l 181 276 b 183 279 182 276 182 278 l 421 518 l 818 7 b 832 0 822 4 826 0 b 843 6 836 0 839 1 b 844 31 850 11 851 21 l 446 543 l 843 940 b 843 965 850 947 850 958 b 818 965 836 972 826 972 l 181 328 l 181 953 b 163 971 181 961 171 971 b 144 953 151 971 144 961 l 144 18 z "},"L":{"ha":782,"x_min":0,"x_max":0,"o":"m 681 0 b 699 18 692 0 699 8 b 681 35 699 28 692 35 l 179 35 l 179 954 b 163 972 179 964 172 972 b 144 954 153 972 144 964 l 144 18 b 163 0 144 8 153 0 l 165 0 z "},"M":{"ha":1172,"x_min":0,"x_max":0,"o":"m 922 18 b 939 0 922 8 931 0 b 957 18 950 0 957 8 l 957 953 b 939 971 957 961 950 971 b 935 969 938 971 936 971 b 924 964 931 969 926 967 l 551 447 l 179 964 b 167 969 175 967 171 969 b 163 971 165 971 164 971 b 144 953 153 971 144 961 l 144 18 b 163 0 144 8 153 0 b 179 18 172 0 179 8 l 179 903 l 535 408 b 550 401 538 404 543 401 l 553 401 b 568 408 558 401 564 404 l 922 901 l 922 18 z "},"N":{"ha":1071,"x_min":0,"x_max":0,"o":"m 818 13 b 819 11 818 11 818 11 b 836 0 822 4 829 0 b 853 18 846 0 853 8 l 853 947 b 836 965 853 957 846 965 b 818 947 828 965 818 957 l 818 72 l 176 964 b 151 967 171 971 161 972 b 144 951 147 963 144 957 l 144 947 l 144 18 b 163 0 144 8 154 0 b 179 18 172 0 179 8 l 179 900 l 818 13 z "},"O":{"ha":1181,"x_min":0,"x_max":0,"o":"m 101 485 l 101 485 b 575 -18 103 206 313 -18 l 575 -18 b 1050 485 838 -18 1047 206 l 1050 485 b 575 986 1047 763 838 986 l 575 986 b 101 485 313 986 103 763 z m 139 485 l 139 485 b 575 950 139 743 336 950 l 575 950 b 1011 485 813 950 1010 743 l 1011 485 b 575 19 1010 228 813 22 l 575 19 b 139 485 336 22 139 228 z "},"P":{"ha":810,"x_min":0,"x_max":0,"o":"m 144 18 b 163 0 144 8 153 0 b 179 18 172 0 179 8 l 179 432 l 447 432 b 718 701 596 432 718 551 b 447 972 718 851 596 972 l 165 972 l 163 972 b 144 954 153 972 144 964 z m 179 468 l 179 938 l 447 938 b 682 701 576 938 682 832 b 447 468 682 571 576 468 z "},"Q":{"ha":1172,"x_min":0,"x_max":0,"o":"m 1121 -99 b 1096 -96 1115 -92 1103 -90 b 903 -171 1026 -151 963 -171 b 678 -96 826 -171 751 -139 b 533 -57 629 -65 578 -57 l 732 36 b 1022 492 903 111 1022 289 b 556 986 1022 764 814 986 b 92 492 301 986 93 764 b 556 1 93 221 301 1 b 568 1 560 1 564 1 l 369 -92 b 360 -115 358 -96 356 -107 b 368 -125 364 -119 365 -124 b 389 -126 372 -129 381 -129 l 389 -126 b 397 -121 389 -126 392 -125 b 533 -92 419 -111 471 -92 b 661 -126 574 -92 618 -100 b 903 -206 736 -171 814 -206 b 903 -206 903 -206 903 -206 b 1118 -125 972 -206 1044 -182 b 1121 -99 1126 -117 1128 -107 z m 129 492 b 556 949 129 747 324 949 b 988 492 794 949 988 747 b 556 36 988 239 794 36 b 129 492 324 36 129 239 z "},"R":{"ha":868,"x_min":0,"x_max":0,"o":"m 672 53 b 722 15 686 25 708 15 b 735 18 729 15 733 15 b 746 39 744 19 749 31 b 725 51 744 47 733 53 l 722 51 b 701 68 721 51 714 49 b 681 210 692 88 681 131 b 554 418 681 317 615 383 b 504 443 538 428 521 436 b 699 701 617 475 699 578 b 428 972 699 851 576 972 l 146 972 l 144 972 l 143 972 b 125 954 133 972 125 964 l 125 18 b 143 0 125 8 133 0 b 160 18 153 0 160 8 l 160 432 l 424 432 b 460 424 424 432 438 431 b 576 360 490 413 538 394 b 646 210 615 325 646 278 b 672 53 646 126 656 81 z m 160 468 l 160 938 l 428 938 b 663 701 557 938 663 832 b 431 468 663 571 558 469 l 428 468 z "},"S":{"ha":926,"x_min":0,"x_max":0,"o":"m 99 142 l 99 142 b 456 1 178 78 310 1 l 456 1 b 810 265 647 1 808 115 l 810 265 b 707 440 810 340 769 399 l 707 440 b 458 528 643 482 558 508 l 456 528 l 456 528 b 238 606 367 544 290 569 l 238 606 b 156 742 185 642 156 685 l 156 742 b 240 890 156 799 188 851 l 240 890 b 453 954 294 929 369 954 l 453 954 b 736 846 569 954 657 897 l 736 846 b 757 850 743 842 753 843 l 757 850 b 753 872 763 858 760 868 l 753 872 l 753 872 b 453 986 675 924 579 986 l 453 986 b 124 742 275 986 125 881 l 124 742 b 219 579 124 672 161 618 l 219 579 b 450 497 278 540 358 514 l 453 496 l 453 496 b 689 414 550 479 632 453 l 689 414 b 778 265 746 375 778 328 l 778 265 b 685 103 778 203 743 146 l 685 103 b 456 33 626 60 546 33 l 456 33 b 118 167 321 33 194 106 l 118 167 b 96 165 111 172 101 171 l 96 165 b 99 142 90 158 92 147 z "},"T":{"ha":900,"x_min":0,"x_max":0,"o":"m 408 18 b 426 0 408 8 415 0 b 444 18 435 0 444 8 l 444 938 l 764 938 b 782 954 775 938 782 944 b 764 972 782 964 775 972 l 88 972 b 69 954 78 972 69 964 b 88 938 69 944 78 938 l 408 938 l 408 18 z "},"U":{"ha":1131,"x_min":0,"x_max":0,"o":"m 146 390 b 535 0 146 174 319 0 b 925 390 749 0 925 174 l 925 954 b 907 972 925 964 915 972 b 889 954 897 972 889 964 l 889 390 b 535 35 888 193 729 38 b 181 390 339 38 181 193 l 181 954 b 164 972 181 964 174 972 b 146 954 153 972 146 964 l 146 390 z "},"V":{"ha":1042,"x_min":0,"x_max":0,"o":"m 485 1 b 488 0 485 1 486 1 l 490 0 l 492 0 b 497 1 493 0 496 0 l 499 1 b 507 10 503 3 506 6 b 508 11 507 10 508 10 l 901 946 b 892 968 904 954 901 965 b 869 960 883 972 872 968 l 492 64 l 115 960 b 90 968 110 968 100 972 b 82 946 82 965 78 954 l 475 11 b 481 4 476 8 478 6 b 485 1 482 3 483 1 z "},"W":{"ha":1531,"x_min":0,"x_max":0,"o":"m 1072 1 b 1076 0 1074 0 1075 0 l 1078 0 l 1079 0 b 1088 3 1082 0 1085 1 b 1090 4 1088 3 1089 4 b 1096 11 1092 7 1094 8 l 1489 946 b 1479 968 1493 954 1489 965 b 1456 960 1469 972 1461 968 l 1078 63 l 807 708 b 788 721 803 717 794 722 b 769 708 781 721 772 717 l 497 63 l 121 960 b 97 968 117 968 106 972 b 89 946 89 965 83 954 l 481 14 b 485 6 481 11 482 8 b 486 4 485 4 485 4 b 490 1 488 3 489 1 l 492 1 b 497 0 493 0 494 0 l 499 0 b 503 1 500 0 501 0 l 504 1 b 514 11 508 3 513 7 l 789 664 l 1061 13 b 1071 1 1063 7 1065 3 z "},"X":{"ha":1003,"x_min":0,"x_max":0,"o":"m 110 4 b 121 0 114 1 117 0 b 135 7 126 0 131 4 l 461 456 l 789 7 b 803 0 793 4 799 0 b 814 4 807 0 810 1 b 818 28 821 11 822 21 l 483 485 l 818 943 b 814 967 822 950 821 961 b 789 964 806 972 794 971 l 461 515 l 135 964 b 110 967 129 971 117 972 b 107 943 101 961 101 950 l 440 485 l 107 28 b 110 4 101 21 101 11 z "},"Y":{"ha":839,"x_min":0,"x_max":0,"o":"m 422 18 b 440 0 422 8 431 0 b 457 18 450 0 457 8 l 457 475 l 800 943 b 794 967 806 950 803 961 b 769 964 788 972 776 971 l 440 510 l 110 964 b 86 967 104 971 93 972 b 82 943 76 961 75 950 l 422 475 l 422 18 z "},"Z":{"ha":926,"x_min":0,"x_max":0,"o":"m 763 935 l 106 32 b 99 18 100 29 99 24 b 117 0 99 8 106 0 l 118 0 l 799 0 b 817 18 810 0 817 8 b 799 35 817 28 810 35 l 150 35 l 810 939 b 814 943 811 940 813 940 b 815 946 814 943 815 944 b 817 953 815 947 817 950 b 799 971 817 961 810 971 l 117 971 b 99 953 106 971 99 961 b 117 935 99 943 106 935 z "},"&":{"ha":967,"x_min":0,"x_max":0,"o":"m 68 311 b 379 0 68 139 207 0 b 692 311 553 0 692 139 b 682 392 692 339 689 365 b 733 415 700 394 718 403 b 776 511 760 435 778 468 b 771 558 776 526 775 543 b 750 572 769 569 760 574 b 738 551 740 571 733 560 b 743 511 740 536 743 524 b 713 444 740 478 731 458 b 647 425 694 432 672 425 l 639 425 b 589 426 621 426 606 426 b 390 367 489 426 428 401 b 346 256 353 331 346 288 b 351 210 346 229 351 210 b 369 197 356 201 363 197 l 375 197 b 385 221 383 201 389 210 b 383 229 385 221 385 222 b 382 256 383 236 382 244 b 415 342 382 282 389 315 b 589 392 443 368 494 392 b 638 389 606 392 619 392 l 646 389 b 657 311 653 364 657 338 b 379 35 657 158 533 35 b 103 311 226 35 103 158 b 254 560 103 418 164 513 b 263 564 257 560 260 561 b 269 585 269 568 272 576 b 268 586 269 585 268 585 b 264 592 267 588 265 590 b 185 747 214 626 185 683 b 372 938 185 853 269 938 b 563 747 478 938 563 853 b 581 729 563 738 572 729 b 599 747 592 729 599 738 b 372 972 599 872 497 972 b 149 747 250 972 149 872 b 221 581 149 681 176 622 b 68 311 129 526 68 425 z "}," ":{"ha":417,"x_min":0,"x_max":0,"o":""},"a":{"ha":860,"x_min":0,"x_max":0,"o":"m 681 681 b 663 663 669 681 663 671 l 663 493 b 376 681 610 603 501 681 b 56 340 199 681 56 526 b 376 0 56 154 199 0 b 663 188 501 0 610 76 l 663 18 b 681 0 663 7 669 0 b 697 18 690 0 697 7 l 697 663 b 681 681 697 671 690 681 z m 376 35 b 90 340 219 35 90 171 b 376 644 90 508 219 644 b 663 340 533 644 663 508 b 376 35 663 171 533 35 z "},"b":{"ha":917,"x_min":0,"x_max":0,"o":"m 129 18 b 147 0 129 8 136 0 b 164 18 156 0 164 8 l 164 186 b 457 0 218 76 329 0 b 788 342 640 0 788 154 b 457 681 788 528 640 681 b 164 493 329 681 218 604 l 164 951 b 147 972 164 961 156 972 b 129 951 136 972 129 961 l 129 356 l 129 342 l 129 325 z m 164 354 b 457 646 169 517 301 646 b 753 342 619 646 753 510 b 457 35 753 172 619 35 b 164 342 297 35 164 172 z "},"c":{"ha":793,"x_min":0,"x_max":0,"o":"m 81 340 b 431 0 81 154 238 1 b 647 74 511 0 588 28 b 649 99 654 81 654 90 b 625 103 643 106 632 107 b 431 35 571 61 503 35 b 115 340 254 35 115 172 b 431 646 115 508 254 646 b 625 579 503 646 571 621 b 649 581 633 574 643 574 b 647 607 654 589 654 600 b 431 681 588 654 511 681 b 81 340 238 681 81 528 z "},"d":{"ha":917,"x_min":0,"x_max":0,"o":"m 742 18 l 742 325 l 742 342 l 742 356 l 742 951 b 724 972 742 961 735 972 b 707 951 715 972 707 961 l 707 493 b 414 681 653 604 542 681 b 83 342 231 681 83 528 b 414 0 83 154 231 0 b 707 186 542 0 653 76 l 707 18 b 724 0 707 8 715 0 b 742 18 735 0 742 8 z m 707 342 b 414 35 707 172 574 35 b 118 342 251 35 118 172 b 414 646 118 510 251 646 b 707 354 569 646 701 517 z "},"e":{"ha":846,"x_min":0,"x_max":0,"o":"m 411 0 b 685 154 525 0 626 64 b 681 178 690 163 688 174 b 656 174 671 182 661 182 b 411 35 604 90 514 35 b 115 340 247 36 115 174 l 115 344 l 721 344 b 738 361 729 344 736 353 l 738 363 l 738 365 l 738 367 b 411 681 725 543 585 681 b 81 340 229 681 83 529 b 411 0 83 154 229 3 z m 411 644 b 703 378 560 644 685 529 l 117 378 b 411 644 135 529 260 644 z "},"f":{"ha":503,"x_min":0,"x_max":0,"o":"m 389 974 b 261 929 335 974 292 963 b 219 778 232 896 219 847 l 219 686 l 108 686 b 90 668 99 686 90 678 b 108 650 90 658 99 650 l 219 650 l 219 19 b 238 1 219 10 228 1 b 256 19 247 1 256 10 l 256 650 l 372 650 b 389 668 382 650 389 658 b 372 686 389 678 382 686 l 256 686 l 256 778 b 288 906 256 843 267 883 b 389 939 307 928 339 939 b 407 957 399 939 407 947 b 389 974 407 967 399 974 z "},"g":{"ha":917,"x_min":0,"x_max":0,"o":"m 707 681 b 690 663 699 681 690 672 l 690 663 l 690 494 b 404 681 639 603 529 681 b 83 340 226 681 83 528 b 404 0 83 154 226 0 b 690 188 529 0 639 78 l 690 39 b 404 -249 690 -119 563 -246 b 279 -218 358 -249 318 -237 b 256 -226 269 -215 260 -218 b 263 -250 251 -235 254 -244 b 404 -283 307 -271 353 -283 b 725 39 582 -283 725 -139 l 725 663 b 707 681 725 672 718 681 z m 690 340 b 404 36 690 171 561 36 b 118 340 247 36 118 171 b 404 646 118 510 247 646 b 690 340 561 646 690 510 l 690 340 z "},"h":{"ha":851,"x_min":0,"x_max":0,"o":"m 646 18 b 664 0 646 8 653 0 b 681 18 672 0 681 8 l 681 404 b 406 681 681 557 558 681 b 164 538 301 681 211 622 l 164 954 b 147 972 164 964 157 972 b 129 954 138 972 129 964 l 129 415 l 129 404 l 129 18 l 129 15 b 135 4 129 11 132 7 b 147 0 139 1 143 0 l 150 0 b 157 3 151 0 154 1 b 164 18 161 6 164 11 l 164 414 b 406 644 169 542 275 644 b 646 404 539 644 646 538 l 646 18 z "},"i":{"ha":390,"x_min":0,"x_max":0,"o":"m 131 18 b 149 0 131 8 138 0 b 165 18 157 0 165 8 l 165 664 b 149 681 165 675 157 681 b 131 664 138 681 131 675 z m 131 849 b 149 832 131 840 138 832 b 165 849 157 832 165 840 l 165 882 b 149 900 165 893 157 900 b 131 882 138 900 131 893 z "},"j":{"ha":346,"x_min":0,"x_max":0,"o":"m -7 -267 b 10 -282 -7 -274 0 -282 b 117 -175 69 -282 117 -235 l 117 664 b 97 681 117 672 107 681 b 81 664 88 681 81 672 l 81 -175 b 10 -247 81 -217 49 -247 b -7 -267 0 -247 -7 -254 z m 83 851 b 101 835 83 842 90 835 b 121 851 110 835 121 842 l 121 885 b 101 903 121 894 110 903 b 83 885 90 903 83 894 z "},"k":{"ha":778,"x_min":0,"x_max":0,"o":"m 129 18 b 147 0 129 8 136 0 b 164 18 156 0 164 8 l 164 185 b 168 188 165 185 167 186 l 328 347 l 610 7 b 624 0 613 1 618 0 b 633 4 626 0 631 1 b 636 31 640 11 643 21 l 354 374 l 636 656 b 636 681 643 663 643 674 b 611 681 628 688 618 688 l 164 233 l 164 954 b 147 972 164 964 156 972 b 129 954 136 972 129 964 l 129 18 z "},"l":{"ha":346,"x_min":0,"x_max":0,"o":"m 139 18 l 139 18 b 157 0 139 8 146 0 l 157 0 b 174 18 167 0 174 8 l 174 954 l 174 954 b 157 972 174 964 167 972 l 157 972 b 139 954 146 972 139 964 l 139 18 z "},"m":{"ha":1321,"x_min":0,"x_max":0,"o":"m 1151 18 b 1169 0 1151 8 1161 0 b 1186 18 1179 0 1186 8 l 1186 406 b 915 681 1186 557 1065 681 b 658 503 797 681 697 607 b 403 681 619 607 519 681 b 165 539 300 681 213 624 l 165 663 b 149 681 165 674 157 681 b 132 663 138 681 132 674 l 132 439 b 129 406 131 428 129 417 l 129 18 b 144 0 129 8 136 1 l 149 0 b 158 4 151 0 156 1 b 161 6 160 4 160 6 b 163 8 161 7 161 7 b 165 18 164 11 165 14 l 165 415 b 403 646 169 543 275 646 b 642 406 535 646 642 539 l 642 18 b 658 0 642 8 649 0 b 672 6 664 0 668 1 b 674 8 672 7 672 7 b 675 13 674 10 675 11 b 676 18 676 14 676 15 l 676 406 l 676 415 b 915 646 681 543 786 646 b 1151 406 1044 646 1151 539 l 1151 18 z "},"n":{"ha":851,"x_min":0,"x_max":0,"o":"m 643 18 b 660 0 643 8 649 0 b 678 18 669 0 678 8 l 678 406 b 404 681 678 558 554 681 b 164 539 301 681 211 624 l 164 664 b 147 681 164 675 157 681 b 129 664 138 681 129 675 l 129 417 l 129 406 l 129 18 l 129 15 b 132 8 129 13 131 10 b 133 6 132 7 132 7 b 138 3 135 4 136 3 b 142 0 139 1 140 1 l 144 0 l 147 0 b 160 7 153 0 157 3 b 164 18 163 10 164 14 l 164 406 b 404 646 164 540 274 646 b 643 406 535 646 643 540 l 643 18 z "},"o":{"ha":868,"x_min":0,"x_max":0,"o":"m 97 340 l 97 340 b 418 0 97 154 240 0 l 418 0 b 740 340 596 0 740 154 l 740 340 b 418 681 740 528 596 681 l 418 681 b 97 340 240 681 97 528 z m 132 340 l 132 340 b 418 646 132 510 261 646 l 418 646 b 706 340 575 646 706 510 l 706 340 b 418 35 706 172 575 35 l 418 35 b 132 340 261 35 132 172 z "},"p":{"ha":917,"x_min":0,"x_max":0,"o":"m 129 -279 b 147 -297 129 -290 136 -297 b 164 -279 157 -297 164 -290 l 164 192 b 454 7 217 83 328 7 b 782 344 638 7 782 158 b 454 681 782 531 638 681 b 164 494 328 681 217 606 l 164 663 b 147 681 164 674 157 681 b 129 663 136 681 129 674 l 129 358 l 129 344 l 129 331 z m 164 357 b 454 646 169 517 300 646 b 746 344 614 646 746 510 b 454 43 746 178 614 43 b 164 344 296 43 164 178 z "},"q":{"ha":917,"x_min":0,"x_max":0,"o":"m 736 -279 l 736 331 l 736 344 l 736 358 l 736 663 b 718 681 736 674 729 681 b 701 663 708 681 701 674 l 701 494 b 411 681 649 606 538 681 b 83 344 228 681 83 531 b 411 7 83 158 228 7 b 701 192 538 7 649 83 l 701 -279 b 718 -297 701 -290 708 -297 b 736 -279 729 -297 736 -290 z m 701 344 b 411 43 701 178 569 43 b 119 344 251 43 119 178 b 411 646 119 510 251 646 b 701 357 565 646 696 517 z "},"r":{"ha":610,"x_min":0,"x_max":0,"o":"m 131 18 b 147 0 131 7 139 0 b 164 18 158 0 164 7 l 164 336 b 181 383 164 336 169 353 b 281 551 199 426 232 496 b 478 644 326 603 392 644 b 496 663 489 644 496 653 b 478 681 496 672 489 681 b 207 513 347 681 260 592 b 164 432 189 485 175 457 l 164 663 b 147 681 164 672 158 681 b 131 663 139 681 131 672 l 131 344 b 131 336 129 340 129 339 l 131 18 z "},"s":{"ha":683,"x_min":0,"x_max":0,"o":"m 79 97 l 79 97 b 326 0 133 53 224 0 l 326 0 b 572 186 458 0 571 79 l 572 186 b 500 311 572 239 543 282 l 500 311 b 329 369 456 340 397 356 l 328 369 l 328 369 b 181 422 267 382 215 399 l 181 422 b 129 508 146 446 129 472 l 129 508 b 183 603 129 544 149 576 l 183 603 b 325 646 218 629 268 646 l 325 646 b 511 572 400 646 458 607 l 511 572 b 536 578 519 567 531 569 l 536 578 b 531 601 540 585 539 596 l 531 601 l 531 601 b 325 681 478 638 411 681 l 325 681 b 93 508 200 681 94 607 l 93 508 b 161 393 93 460 121 419 l 161 393 b 319 338 201 364 257 347 l 324 338 l 324 338 b 481 282 389 325 442 307 l 481 282 b 538 186 518 256 536 225 l 538 186 b 476 81 538 146 515 108 l 476 81 b 326 35 438 53 386 35 l 326 35 b 101 122 236 35 151 82 l 101 122 b 76 119 93 131 82 129 l 76 119 b 79 97 71 113 71 103 z "},"t":{"ha":556,"x_min":0,"x_max":0,"o":"m 339 681 l 228 681 l 228 953 b 210 971 228 963 219 971 b 193 953 200 971 193 963 l 193 953 l 193 681 l 76 681 b 58 663 67 681 58 672 b 76 646 58 653 67 646 l 193 646 l 193 104 b 299 -1 193 46 240 -1 b 317 17 308 -1 317 7 b 299 33 317 26 308 33 b 228 104 260 33 228 65 l 228 646 l 339 646 b 357 663 349 646 357 653 b 339 681 357 672 349 681 z "},"u":{"ha":851,"x_min":0,"x_max":0,"o":"m 115 275 l 115 275 b 388 0 115 122 238 0 l 388 0 b 663 275 539 0 663 122 l 663 663 l 663 663 b 644 681 663 672 654 681 l 644 681 b 626 663 636 681 626 672 l 626 275 l 626 275 b 388 35 626 142 519 35 l 388 35 b 150 275 257 35 150 142 l 150 663 l 150 663 b 133 681 150 672 142 681 l 133 681 b 115 663 122 681 115 672 l 115 275 z "},"v":{"ha":808,"x_min":0,"x_max":0,"o":"m 349 11 b 361 0 351 6 357 1 l 365 0 l 367 0 b 379 7 371 0 375 3 b 382 13 381 8 382 11 l 653 654 b 642 676 657 663 651 672 b 621 667 633 681 624 676 l 365 63 l 110 667 b 88 676 106 676 97 681 b 78 654 79 672 74 663 l 349 11 z "},"w":{"ha":1196,"x_min":0,"x_max":0,"o":"m 765 1 b 774 0 768 0 769 0 b 783 4 776 0 779 1 b 789 11 786 6 789 8 l 1060 654 b 1050 676 1064 663 1058 674 b 1028 668 1040 681 1031 676 l 772 63 l 590 496 b 574 506 586 501 581 506 b 554 496 565 507 557 503 l 372 63 l 118 668 b 94 676 114 676 103 681 b 85 654 85 674 81 663 l 354 14 b 361 3 354 10 357 6 b 368 0 364 1 367 0 l 371 0 l 376 0 b 389 11 382 1 386 6 l 572 447 l 756 11 l 756 10 b 757 8 756 8 757 8 b 760 4 757 7 758 6 b 765 1 761 3 763 1 z "},"x":{"ha":792,"x_min":0,"x_max":0,"o":"m 101 4 b 113 0 106 0 108 0 b 126 7 118 0 122 1 l 349 310 l 567 7 b 583 0 571 1 576 0 b 592 4 586 0 590 0 b 597 28 600 8 603 19 l 371 340 l 597 651 b 592 675 603 658 600 669 b 567 671 585 681 574 678 l 349 368 l 126 671 b 101 675 121 678 111 681 b 99 651 94 669 93 658 l 326 340 l 99 28 b 101 4 93 19 94 8 z "},"y":{"ha":817,"x_min":0,"x_max":0,"o":"m 72 275 b 346 3 72 125 194 3 b 581 142 447 3 536 58 l 581 39 b 296 -246 581 -118 454 -246 b 171 -215 250 -246 210 -235 b 150 -224 164 -212 153 -215 b 157 -247 144 -233 147 -243 b 296 -281 199 -268 246 -281 b 615 39 474 -281 615 -136 l 615 663 b 611 674 615 667 614 671 b 610 675 611 674 611 675 l 606 679 b 601 681 604 679 603 681 l 599 681 b 589 678 594 681 592 679 l 585 674 b 583 672 583 674 583 672 b 581 665 582 669 581 667 l 581 663 l 581 265 b 346 38 575 139 472 38 b 107 275 214 38 107 144 l 107 663 b 90 681 107 672 99 681 b 72 663 79 681 72 672 l 72 275 z "},"z":{"ha":769,"x_min":0,"x_max":0,"o":"m 542 644 l 92 28 b 92 6 85 21 86 11 b 99 1 93 4 96 3 b 106 0 100 0 103 0 l 576 0 b 594 18 588 0 594 7 b 576 35 594 26 588 35 l 139 35 l 586 646 b 593 656 589 649 592 651 b 594 660 593 657 594 658 l 594 663 l 594 665 b 588 676 593 669 592 674 b 572 681 583 679 581 681 l 106 681 b 89 663 96 681 89 671 b 106 644 89 653 96 644 z "},"!":{"ha":350,"x_min":0,"x_max":0,"o":"m 129 232 l 129 232 b 147 215 129 222 136 215 l 147 215 b 164 232 156 215 164 222 l 164 954 l 164 954 b 147 972 164 965 156 972 l 147 972 b 129 954 136 972 129 965 z m 129 18 l 129 18 b 147 0 129 7 136 0 l 147 0 b 164 18 156 0 164 7 l 164 51 l 164 51 b 147 68 164 60 156 68 l 147 68 b 129 51 136 68 129 60 z "},"(":{"ha":597,"x_min":0,"x_max":0,"o":"m 165 35 l 165 35 b 397 -135 211 -67 289 -135 l 397 -135 b 397 -135 397 -135 397 -135 l 397 -135 b 418 -114 408 -135 418 -125 l 418 -114 b 397 -94 418 -103 408 -94 l 397 -94 l 397 -94 b 203 51 307 -94 246 -42 l 203 51 b 139 421 160 143 139 275 l 139 421 b 203 792 139 567 160 699 l 203 792 b 397 936 246 885 307 936 l 397 936 b 418 957 408 936 418 946 l 418 957 b 397 976 418 968 408 976 l 397 976 b 165 808 289 978 211 910 l 165 808 b 99 421 119 707 99 571 l 99 421 b 165 35 99 271 119 135 z "},")":{"ha":597,"x_min":0,"x_max":0,"o":"m 336 35 b 403 421 382 135 403 271 l 403 421 b 336 808 403 571 382 707 l 336 808 b 104 976 290 910 213 978 l 104 976 b 83 957 93 976 83 968 l 83 957 b 104 936 83 946 93 936 l 104 936 b 299 792 194 936 256 885 l 299 792 b 363 421 342 699 363 567 l 363 421 b 299 51 363 275 342 143 l 299 51 b 104 -94 256 -42 194 -94 l 104 -94 l 104 -94 b 83 -114 93 -94 83 -103 l 83 -114 b 104 -135 83 -125 93 -135 l 104 -135 b 104 -135 104 -135 104 -135 l 104 -135 b 336 35 213 -135 290 -67 z "},"+":{"ha":861,"x_min":0,"x_max":0,"o":"m 407 161 b 432 136 407 147 417 136 b 456 161 443 136 456 147 l 456 454 l 750 454 b 774 479 761 454 774 465 b 750 503 774 493 761 503 l 456 503 l 456 797 b 432 821 456 811 443 821 b 407 797 417 821 407 811 l 407 503 l 114 503 b 89 479 99 503 89 493 b 114 454 89 465 99 454 l 407 454 l 407 161 z "},"<":{"ha":861,"x_min":0,"x_max":0,"o":"m 550 6 b 564 0 554 1 560 0 b 581 6 569 0 576 1 b 581 35 586 14 586 26 l 133 483 l 581 933 b 581 964 586 942 586 956 b 550 964 572 972 558 972 l 92 500 l 90 499 l 88 496 b 83 486 86 493 85 490 b 85 478 83 483 83 481 b 90 469 85 475 88 472 b 92 468 90 468 90 468 l 550 6 z "},">":{"ha":861,"x_min":0,"x_max":0,"o":"m 160 6 l 618 468 l 619 469 l 621 471 b 625 478 622 474 624 476 l 625 481 b 625 489 626 483 625 486 b 621 496 624 492 622 494 b 619 499 621 497 619 497 b 617 500 618 499 618 500 l 160 964 b 129 964 151 972 138 972 b 129 933 124 956 124 942 l 575 483 l 129 35 b 129 6 124 26 124 14 b 146 0 133 1 140 0 b 160 6 150 0 156 1 z "},"A":{"ha":897,"x_min":0,"x_max":0,"o":"m 783 15 b 801 3 788 8 794 3 b 807 4 803 3 804 4 b 817 28 815 8 821 18 l 467 961 b 449 972 463 968 456 972 b 431 961 440 974 433 969 l 81 28 b 89 4 76 18 81 8 b 96 3 92 4 94 3 b 111 15 103 3 110 8 l 204 264 l 690 264 z m 447 908 l 676 300 l 218 300 z "},".":{"ha":319,"x_min":0,"x_max":0,"o":"m 114 36 b 161 -11 114 10 135 -11 b 208 36 188 -11 208 10 b 161 83 208 63 188 83 b 114 36 135 83 114 63 z "},"?":{"ha":742,"x_min":0,"x_max":0,"o":"m 294 215 b 311 199 294 207 301 199 b 328 215 319 199 328 207 l 328 385 b 604 678 479 393 604 522 b 311 972 604 840 471 972 b 57 825 201 972 107 914 b 63 803 51 818 54 808 b 85 808 69 799 79 801 b 311 939 131 888 214 939 b 569 678 453 939 569 822 b 311 418 569 536 453 418 b 294 401 301 418 294 411 l 294 400 l 294 397 z m 294 17 b 311 0 294 7 301 0 b 328 17 319 0 328 7 l 328 49 b 311 65 328 57 319 65 b 294 49 301 65 294 57 z "},"=":{"ha":861,"x_min":0,"x_max":0,"o":"m 131 321 l 131 321 l 606 321 l 606 321 b 626 339 617 321 626 328 l 626 339 b 606 361 626 350 617 361 l 131 361 l 131 361 b 110 339 118 361 110 350 l 110 339 b 131 321 110 328 118 321 z m 131 610 l 131 610 l 606 610 l 606 610 b 626 626 617 610 626 618 l 626 626 b 606 647 626 638 617 647 l 131 647 l 131 647 b 110 626 118 647 110 638 l 110 626 b 131 610 110 618 118 610 z "},"-":{"ha":567,"x_min":0,"x_max":0,"o":"m 106 472 l 106 472 l 422 472 l 422 472 b 435 485 431 472 435 476 l 435 485 b 422 500 435 493 431 500 l 106 500 l 106 500 b 92 485 97 500 92 493 l 92 485 b 106 472 92 476 97 472 z "},"/":{"ha":586,"x_min":0,"x_max":0,"o":"m 114 1 l 114 1 b 121 0 115 0 119 0 l 121 0 b 136 11 128 0 135 4 l 532 946 l 532 946 b 521 968 535 954 529 965 l 521 968 b 499 958 513 972 501 967 l 106 25 l 106 25 b 114 1 101 15 106 6 z "},":":{"ha":333,"x_min":0,"x_max":0,"o":"m 121 668 l 121 631 b 167 585 121 604 140 585 b 213 631 193 585 213 604 l 213 668 b 167 714 213 694 193 714 b 121 668 140 714 121 694 z m 121 78 l 121 40 b 167 -6 121 14 140 -6 b 213 40 193 -6 213 14 l 213 78 b 167 124 213 104 193 124 b 121 78 140 124 121 104 z "},";":{"ha":333,"x_min":0,"x_max":0,"o":"m 121 668 l 121 631 b 167 585 121 604 140 585 b 213 631 193 585 213 604 l 213 668 b 167 714 213 694 193 714 b 121 668 140 714 121 694 z m 82 -125 b 103 -146 82 -139 93 -146 b 175 -101 115 -146 150 -126 b 213 43 200 -76 213 -35 l 213 78 b 167 124 213 104 193 124 b 121 78 140 124 121 104 l 121 49 b 158 0 121 21 138 6 b 93 -107 163 -49 143 -79 b 82 -125 86 -111 82 -118 z "},",":{"ha":319,"x_min":0,"x_max":0,"o":"m 75 -125 b 96 -146 75 -139 86 -146 b 168 -101 108 -146 143 -126 b 206 43 193 -76 206 -35 l 206 78 b 160 124 206 104 186 124 b 114 78 133 124 114 104 l 114 49 b 151 0 114 21 131 6 b 86 -107 156 -49 136 -79 b 75 -125 79 -111 75 -118 z "},"'":{"ha":319,"x_min":0,"x_max":0,"o":"m 97 640 b 117 614 94 619 104 614 b 140 639 129 614 135 621 l 219 918 b 226 951 222 931 226 943 b 204 975 226 968 217 975 l 178 975 b 139 939 156 975 143 964 z "},"\"":{"ha":569,"x_min":0,"x_max":0,"o":"m 347 640 b 367 614 344 619 354 614 b 390 639 379 614 385 621 l 469 918 b 476 951 472 931 476 943 b 454 975 476 968 467 975 l 428 975 b 389 939 406 975 393 964 z m 97 640 b 117 614 94 619 104 614 b 140 639 129 614 135 621 l 219 918 b 226 951 222 931 226 943 b 204 975 226 968 217 975 l 178 975 b 139 939 156 975 143 964 z "},"_":{"ha":833,"x_min":0,"x_max":0,"o":"m -3 -222 l 461 -222 b 492 -199 478 -222 492 -215 b 461 -175 492 -182 478 -175 l -3 -175 b -33 -199 -19 -175 -33 -182 b -3 -222 -33 -215 -19 -222 z "},"*":{"ha":597,"x_min":0,"x_max":0,"o":"m 271 589 b 299 558 269 572 282 558 b 326 589 315 558 328 572 l 315 740 l 442 654 b 464 646 450 649 456 646 b 492 675 479 646 492 660 b 472 701 492 690 482 697 l 329 769 l 472 838 b 492 864 482 842 492 849 b 464 893 492 879 479 893 b 442 885 456 893 450 890 l 315 799 l 326 950 b 299 981 328 967 315 981 b 271 950 282 981 269 967 l 282 799 l 156 885 b 133 893 147 890 143 893 b 106 864 118 892 106 879 b 125 838 106 851 114 843 l 268 769 l 125 701 b 106 675 115 697 106 688 b 133 646 106 660 118 646 b 156 654 142 646 147 649 l 282 740 z "},"@":{"ha":1361,"x_min":0,"x_max":0,"o":"m 74 486 b 560 0 74 218 292 0 b 681 14 601 0 643 6 b 694 38 690 18 696 26 b 671 50 690 46 681 51 b 560 36 636 40 599 36 b 110 486 311 36 110 238 b 560 938 110 736 311 938 b 1011 486 810 938 1011 736 b 963 282 1011 413 993 342 b 956 269 963 282 960 275 b 867 203 942 250 908 210 b 849 199 861 199 856 199 b 811 217 831 199 821 206 b 797 256 803 228 797 244 l 797 472 l 797 476 l 797 486 b 560 738 797 625 692 738 b 321 486 429 738 321 625 b 560 233 321 349 429 233 b 764 357 647 233 722 283 l 764 251 b 783 196 764 232 769 213 b 849 163 796 176 819 163 b 875 164 857 163 865 164 b 993 264 951 185 992 261 b 1047 486 1028 331 1047 407 b 560 974 1047 756 829 974 b 74 486 292 974 74 756 z m 357 486 b 560 704 357 607 449 704 b 764 486 671 704 764 607 b 560 269 764 367 671 269 b 357 486 449 269 357 367 z "},"\\":{"ha":622,"x_min":0,"x_max":0,"o":"m 506 3 b 514 26 514 7 518 17 l 514 26 l 121 960 b 99 969 118 968 107 974 l 99 969 b 88 947 90 967 85 956 l 88 947 l 483 13 b 499 1 485 6 492 1 l 499 1 b 506 3 500 1 504 1 l 506 3 z "},"“":{"ha":563,"x_min":0,"x_max":0,"o":"m 482 956 b 461 976 482 969 471 976 b 389 932 449 976 414 957 b 351 788 364 907 351 865 l 351 753 b 397 707 351 728 372 707 b 443 753 422 707 443 728 l 443 782 b 406 831 443 810 426 825 b 471 938 401 879 421 910 b 482 956 478 942 482 949 z m 232 956 b 211 976 232 969 221 976 b 139 932 199 976 164 957 b 101 788 114 907 101 865 l 101 753 b 147 707 101 728 122 707 b 193 753 172 707 193 728 l 193 782 b 156 831 193 810 176 825 b 221 938 151 879 171 910 b 232 956 228 942 232 949 z "},"”":{"ha":569,"x_min":0,"x_max":0,"o":"m 82 729 b 103 708 82 715 93 708 b 175 753 115 708 150 728 b 213 897 200 778 213 819 l 213 932 b 167 978 213 957 192 978 b 121 932 142 978 121 957 l 121 903 b 158 854 121 875 138 860 b 93 747 163 806 143 775 b 82 729 86 743 82 736 z m 332 729 b 353 708 332 715 343 708 b 425 753 365 708 400 728 b 463 897 450 778 463 819 l 463 932 b 417 978 463 957 442 978 b 371 932 392 978 371 957 l 371 903 b 408 854 371 875 388 860 b 343 747 413 806 393 775 b 332 729 336 743 332 736 z "},"‚":{"ha":319,"x_min":0,"x_max":0,"o":""},"‘":{"ha":319,"x_min":0,"x_max":0,"o":"m 238 956 b 217 976 238 969 226 976 b 144 932 204 976 169 957 b 107 788 119 907 107 865 l 107 753 b 153 707 107 728 128 707 b 199 753 178 707 199 728 l 199 782 b 161 831 199 810 182 825 b 226 938 157 879 176 910 b 238 956 233 942 238 949 z "},"’":{"ha":319,"x_min":0,"x_max":0,"o":"m 82 729 b 103 708 82 715 93 708 b 175 753 115 708 150 728 b 213 897 200 778 213 819 l 213 932 b 167 978 213 957 192 978 b 121 932 142 978 121 957 l 121 903 b 158 854 121 875 138 860 b 93 747 163 806 143 775 b 82 729 86 743 82 736 z "},"#":{"ha":972,"x_min":0,"x_max":0,"o":"m 211 39 b 228 -1 208 19 204 -1 b 249 29 246 -1 246 11 l 289 278 l 604 278 l 565 39 b 582 -1 563 19 558 -1 b 603 29 600 -1 600 11 l 643 278 l 819 278 b 853 297 838 278 853 279 b 819 315 853 315 838 315 l 654 315 l 711 671 l 875 671 b 908 690 893 671 908 672 b 875 708 908 708 893 708 l 722 708 l 760 942 b 743 982 763 961 767 982 b 722 951 725 982 725 969 l 683 708 l 368 708 l 406 942 b 389 982 408 961 413 982 b 368 951 371 982 371 969 l 329 708 l 151 708 b 118 689 133 708 118 707 b 151 671 118 671 133 671 l 318 671 l 261 315 l 96 315 b 63 296 78 315 63 314 b 96 278 63 278 78 278 l 250 278 l 211 39 z m 300 315 l 357 671 l 672 671 l 615 315 l 300 315 z "},"˜":{"ha":694,"x_min":0,"x_max":0,"o":"m 190 836 b 257 890 207 874 226 890 b 435 836 307 890 385 836 b 544 931 489 836 526 875 b 547 947 546 935 547 943 b 522 971 547 961 536 971 b 504 947 510 971 508 956 b 435 888 488 910 465 888 b 257 940 388 888 310 940 b 151 857 219 940 165 900 b 146 838 150 853 146 842 b 168 819 146 824 154 819 b 190 836 182 819 186 828 z "},"~":{"ha":639,"x_min":0,"x_max":0,"o":"m 163 351 b 229 406 179 389 199 406 b 407 351 279 406 357 351 b 517 446 461 351 499 390 b 519 463 518 450 519 458 b 494 486 519 476 508 486 b 476 463 482 486 481 471 b 407 403 460 425 438 403 b 229 456 360 403 282 456 b 124 372 192 456 138 415 b 118 353 122 368 118 357 b 140 335 118 339 126 335 b 163 351 154 335 158 343 z "},"ˆ":{"ha":694,"x_min":0,"x_max":0,"o":"m 346 964 l 443 860 b 481 833 451 851 465 833 b 499 836 493 833 499 829 b 492 853 499 842 497 846 l 392 975 b 353 1000 379 990 369 1000 l 342 1000 b 303 975 325 1000 315 990 l 203 853 b 196 836 197 846 196 842 b 215 833 196 829 204 833 b 250 858 229 833 243 851 z "},"`":{"ha":694,"x_min":0,"x_max":0,"o":"m 376 831 b 386 835 385 826 386 828 b 381 850 386 840 383 846 l 294 979 b 256 1004 283 996 272 1004 b 231 983 229 1004 235 990 b 244 958 226 976 236 967 l 343 851 b 376 831 358 835 363 836 z "},"´":{"ha":694,"x_min":0,"x_max":0,"o":"m 289 831 b 322 851 303 836 307 835 l 421 958 b 435 983 429 967 439 976 b 410 1004 431 990 436 1004 b 371 979 393 1004 382 996 l 285 850 b 279 835 282 846 279 840 b 289 831 279 828 281 826 z "},"È":{"ha":824,"x_min":0,"x_max":0,"o":"m 164 0 l 161 0 b 144 18 150 0 144 8 l 144 954 b 161 972 144 963 150 971 l 163 972 l 164 972 l 679 972 b 696 954 689 972 696 964 b 679 938 696 944 689 938 l 179 938 l 179 504 l 619 504 b 636 488 629 504 636 496 b 619 469 636 476 629 469 l 179 469 l 179 35 l 679 35 b 696 18 689 35 696 28 b 679 0 696 8 689 0 l 165 0 z m 454 1108 b 464 1113 463 1104 464 1106 b 458 1128 464 1118 461 1124 l 372 1257 b 333 1282 361 1274 350 1282 b 308 1261 307 1282 313 1268 b 322 1236 304 1254 314 1244 l 421 1129 b 454 1108 436 1113 440 1114 z "},"É":{"ha":824,"x_min":0,"x_max":0,"o":"m 165 0 l 679 0 b 696 18 689 0 696 8 b 679 35 696 28 689 35 l 179 35 l 179 469 l 619 469 b 636 488 629 469 636 476 b 619 504 636 496 629 504 l 179 504 l 179 938 l 679 938 b 696 954 689 938 696 944 b 679 972 696 964 689 972 l 164 972 l 163 972 l 161 972 b 144 954 150 971 144 963 l 144 18 b 161 0 144 8 150 0 l 164 0 z m 358 1108 b 392 1129 372 1114 376 1113 l 490 1236 b 504 1261 499 1244 508 1254 b 479 1282 500 1268 506 1282 b 440 1257 463 1282 451 1274 l 354 1128 b 349 1113 351 1124 349 1118 b 358 1108 349 1106 350 1104 z "},"Ê":{"ha":824,"x_min":0,"x_max":0,"o":"m 164 0 l 161 0 b 144 18 150 0 144 8 l 144 954 b 161 972 144 963 150 971 l 163 972 l 164 972 l 679 972 b 696 954 689 972 696 964 b 679 938 696 944 689 938 l 179 938 l 179 504 l 619 504 b 636 488 629 504 636 496 b 619 469 636 476 629 469 l 179 469 l 179 35 l 679 35 b 696 18 689 35 696 28 b 679 0 696 8 689 0 l 165 0 z m 419 1242 l 517 1138 b 554 1111 525 1129 539 1111 b 572 1114 567 1111 572 1107 b 565 1131 572 1119 571 1124 l 465 1253 b 426 1278 453 1268 443 1278 l 415 1278 b 376 1253 399 1278 389 1268 l 276 1131 b 269 1114 271 1124 269 1119 b 289 1111 269 1107 278 1111 b 324 1136 303 1111 317 1129 z "},"Ì":{"ha":483,"x_min":0,"x_max":0,"o":"m 268 18 l 268 954 b 286 972 268 965 275 972 l 286 972 b 303 954 294 972 303 965 l 303 954 l 303 18 b 286 0 303 7 294 0 l 286 0 b 268 18 275 0 268 7 l 268 18 z m 356 1108 b 365 1113 364 1104 365 1106 b 360 1128 365 1118 363 1124 l 274 1257 b 235 1282 263 1274 251 1282 b 210 1261 208 1282 214 1268 b 224 1236 206 1254 215 1244 l 322 1129 b 356 1108 338 1113 342 1114 z "},"Í":{"ha":381,"x_min":0,"x_max":0,"o":"m 178 18 l 178 18 b 196 0 178 7 185 0 l 196 0 b 213 18 204 0 213 7 l 213 954 l 213 954 b 196 972 213 965 204 972 l 196 972 b 178 954 185 972 178 965 z m 125 1108 b 158 1129 139 1114 143 1113 l 257 1236 b 271 1261 265 1244 275 1254 b 246 1282 267 1268 272 1282 b 207 1257 229 1282 218 1274 l 121 1128 b 115 1113 118 1124 115 1118 b 125 1108 115 1106 117 1104 z "},"Î":{"ha":381,"x_min":0,"x_max":0,"o":"m 136 18 l 136 954 b 154 972 136 965 143 972 l 154 972 b 171 954 163 972 171 965 l 171 954 l 171 18 b 154 0 171 7 163 0 l 154 0 b 136 18 143 0 136 7 l 136 18 z m 151 1242 l 249 1138 b 286 1111 257 1129 271 1111 b 304 1114 299 1111 304 1107 b 297 1131 304 1119 303 1124 l 197 1253 b 158 1278 185 1268 175 1278 l 147 1278 b 108 1253 131 1278 121 1268 l 8 1131 b 1 1114 3 1124 1 1119 b 21 1111 1 1107 10 1111 b 56 1136 35 1111 49 1129 z "},"Ñ":{"ha":1097,"x_min":0,"x_max":0,"o":"m 818 13 l 179 900 l 179 18 b 163 0 179 8 172 0 b 144 18 154 0 144 8 l 144 947 l 144 951 b 151 967 144 957 147 963 b 176 964 161 972 171 971 l 818 72 l 818 947 b 836 965 818 957 828 965 b 853 947 846 965 853 957 l 853 18 b 836 0 853 8 846 0 b 819 11 829 0 822 4 b 818 13 818 11 818 11 z m 344 1114 b 411 1168 361 1151 381 1168 b 589 1114 461 1168 539 1114 b 699 1208 643 1114 681 1153 b 701 1225 700 1213 701 1221 b 676 1249 701 1239 690 1249 b 658 1225 664 1249 663 1233 b 589 1165 642 1188 619 1165 b 411 1218 542 1165 464 1218 b 306 1135 374 1218 319 1178 b 300 1115 304 1131 300 1119 b 322 1097 300 1101 308 1097 b 344 1114 336 1097 340 1106 z "},"Ò":{"ha":1181,"x_min":0,"x_max":0,"o":"m 101 485 b 575 986 103 763 313 986 l 575 986 b 1050 485 838 986 1047 763 l 1050 485 b 575 -18 1047 206 838 -18 l 575 -18 b 101 485 313 -18 103 206 l 101 485 z m 139 485 b 575 19 139 228 336 22 l 575 19 b 1011 485 813 22 1010 228 l 1011 485 b 575 950 1010 743 813 950 l 575 950 b 139 485 336 950 139 743 l 139 485 z m 646 1108 b 656 1113 654 1104 656 1106 b 650 1128 656 1118 653 1124 l 564 1257 b 525 1282 553 1274 542 1282 b 500 1261 499 1282 504 1268 b 514 1236 496 1254 506 1244 l 613 1129 b 646 1108 628 1113 632 1114 z "},"Ó":{"ha":1181,"x_min":0,"x_max":0,"o":"m 101 485 l 101 485 b 575 -18 103 206 313 -18 l 575 -18 b 1050 485 838 -18 1047 206 l 1050 485 b 575 986 1047 763 838 986 l 575 986 b 101 485 313 986 103 763 z m 139 485 l 139 485 b 575 950 139 743 336 950 l 575 950 b 1011 485 813 950 1010 743 l 1011 485 b 575 19 1010 228 813 22 l 575 19 b 139 485 336 22 139 228 z m 507 1108 b 540 1129 521 1114 525 1113 l 639 1236 b 653 1261 647 1244 657 1254 b 628 1282 649 1268 654 1282 b 589 1257 611 1282 600 1274 l 503 1128 b 497 1113 500 1124 497 1118 b 507 1108 497 1106 499 1104 z "},"Ô":{"ha":1181,"x_min":0,"x_max":0,"o":"m 101 485 b 575 986 103 763 313 986 l 575 986 b 1050 485 838 986 1047 763 l 1050 485 b 575 -18 1047 206 838 -18 l 575 -18 b 101 485 313 -18 103 206 l 101 485 z m 139 485 b 575 19 139 228 336 22 l 575 19 b 1011 485 813 22 1010 228 l 1011 485 b 575 950 1010 743 813 950 l 575 950 b 139 485 336 950 139 743 l 139 485 z m 575 1242 l 672 1138 b 710 1111 681 1129 694 1111 b 728 1114 722 1111 728 1107 b 721 1131 728 1119 726 1124 l 621 1253 b 582 1278 608 1268 599 1278 l 571 1278 b 532 1253 554 1278 544 1268 l 432 1131 b 425 1114 426 1124 425 1119 b 444 1111 425 1107 433 1111 b 479 1136 458 1111 472 1129 z "},"Õ":{"ha":1181,"x_min":0,"x_max":0,"o":"m 101 485 b 575 986 103 763 313 986 l 575 986 b 1050 485 838 986 1047 763 l 1050 485 b 575 -18 1047 206 838 -18 l 575 -18 b 101 485 313 -18 103 206 l 101 485 z m 139 485 b 575 19 139 228 336 22 l 575 19 b 1011 485 813 22 1010 228 l 1011 485 b 575 950 1010 743 813 950 l 575 950 b 139 485 336 950 139 743 l 139 485 z m 421 1114 b 488 1168 438 1151 457 1168 b 665 1114 538 1168 615 1114 b 775 1208 719 1114 757 1153 b 778 1225 776 1213 778 1221 b 753 1249 778 1239 767 1249 b 735 1225 740 1249 739 1233 b 665 1165 718 1188 696 1165 b 488 1218 618 1165 540 1218 b 382 1135 450 1218 396 1178 b 376 1115 381 1131 376 1119 b 399 1097 376 1101 385 1097 b 421 1114 413 1097 417 1106 z "},"Ù":{"ha":1056,"x_min":0,"x_max":0,"o":"m 129 390 l 129 954 b 147 972 129 964 136 972 b 164 954 157 972 164 964 l 164 390 b 518 35 164 193 322 38 b 872 390 713 38 871 193 l 872 954 b 890 972 872 964 881 972 b 908 954 899 972 908 964 l 908 390 b 518 0 908 174 732 0 b 129 390 303 0 129 174 z m 513 1108 b 522 1113 521 1104 522 1106 b 517 1128 522 1118 519 1124 l 431 1257 b 392 1282 419 1274 408 1282 b 367 1261 365 1282 371 1268 b 381 1236 363 1254 372 1244 l 479 1129 b 513 1108 494 1113 499 1114 z "},"Ú":{"ha":1056,"x_min":0,"x_max":0,"o":"m 129 390 b 518 0 129 174 303 0 b 908 390 732 0 908 174 l 908 954 b 890 972 908 964 899 972 b 872 954 881 972 872 964 l 872 390 b 518 35 871 193 713 38 b 164 390 322 38 164 193 l 164 954 b 147 972 164 964 157 972 b 129 954 136 972 129 964 z m 425 1108 b 458 1129 439 1114 443 1113 l 557 1236 b 571 1261 565 1244 575 1254 b 546 1282 567 1268 572 1282 b 507 1257 529 1282 518 1274 l 421 1128 b 415 1113 418 1124 415 1118 b 425 1108 415 1106 417 1104 z "},"Û":{"ha":1056,"x_min":0,"x_max":0,"o":"m 129 390 l 129 954 b 147 972 129 964 136 972 b 164 954 157 972 164 964 l 164 390 b 518 35 164 193 322 38 b 872 390 713 38 871 193 l 872 954 b 890 972 872 964 881 972 b 908 954 899 972 908 964 l 908 390 b 518 0 908 174 732 0 b 129 390 303 0 129 174 z m 469 1242 l 567 1138 b 604 1111 575 1129 589 1111 b 622 1114 617 1111 622 1107 b 615 1131 622 1119 621 1124 l 515 1253 b 476 1278 503 1268 493 1278 l 465 1278 b 426 1253 449 1278 439 1268 l 326 1131 b 319 1114 321 1124 319 1119 b 339 1111 319 1107 328 1111 b 374 1136 353 1111 367 1129 z "},"Ý":{"ha":994,"x_min":0,"x_max":0,"o":"m 422 18 b 440 0 422 8 431 0 b 457 18 450 0 457 8 l 457 475 l 800 943 b 794 967 806 950 803 961 b 769 964 788 972 776 971 l 440 510 l 110 964 b 86 967 104 971 93 972 b 82 943 76 961 75 950 l 422 475 z m 401 1108 b 435 1129 415 1114 419 1113 l 533 1236 b 547 1261 542 1244 551 1254 b 522 1282 543 1268 549 1282 b 483 1257 506 1282 494 1274 l 397 1128 b 392 1113 394 1124 392 1118 b 401 1108 392 1106 393 1104 z "},"à":{"ha":797,"x_min":0,"x_max":0,"o":"m 713 681 b 694 663 701 681 694 671 l 694 493 b 408 681 642 603 533 681 b 88 340 231 681 88 526 b 408 0 88 154 231 0 b 694 188 533 0 642 76 l 694 18 b 713 0 694 7 701 0 b 729 18 722 0 729 7 l 729 663 b 713 681 729 671 722 681 z m 408 35 b 122 340 251 35 122 171 b 408 644 122 508 251 644 b 694 340 565 644 694 508 b 408 35 694 171 565 35 z m 479 796 b 489 800 488 792 489 793 b 483 815 489 806 486 811 l 397 944 b 358 969 386 961 375 969 b 333 949 332 969 338 956 b 347 924 329 942 339 932 l 446 817 b 479 796 461 800 465 801 z "},"á":{"ha":797,"x_min":0,"x_max":0,"o":"m 713 681 b 694 663 701 681 694 671 l 694 493 b 408 681 642 603 533 681 b 88 340 231 681 88 526 b 408 0 88 154 231 0 b 694 188 533 0 642 76 l 694 18 b 713 0 694 7 701 0 b 729 18 722 0 729 7 l 729 663 b 713 681 729 671 722 681 z m 408 35 b 122 340 251 35 122 171 b 408 644 122 508 251 644 b 694 340 565 644 694 508 b 408 35 694 171 565 35 z m 340 796 b 374 817 354 801 358 800 l 472 924 b 486 949 481 932 490 942 b 461 969 482 956 488 969 b 422 944 444 969 433 961 l 336 815 b 331 800 333 811 331 806 b 340 796 331 793 332 792 z "},"â":{"ha":797,"x_min":0,"x_max":0,"o":"m 713 681 b 694 663 701 681 694 671 l 694 493 b 408 681 642 603 533 681 b 88 340 231 681 88 526 b 408 0 88 154 231 0 b 694 188 533 0 642 76 l 694 18 b 713 0 694 7 701 0 b 729 18 722 0 729 7 l 729 663 b 713 681 729 671 722 681 z m 408 35 b 122 340 251 35 122 171 b 408 644 122 508 251 644 b 694 340 565 644 694 508 b 408 35 694 171 565 35 z m 446 926 l 543 822 b 581 796 551 814 565 796 b 599 799 593 796 599 792 b 592 815 599 804 597 808 l 492 938 b 453 963 479 953 469 963 l 442 963 b 403 938 425 963 415 953 l 303 815 b 296 799 297 808 296 804 b 315 796 296 792 304 796 b 350 821 329 796 343 814 z "},"ã":{"ha":797,"x_min":0,"x_max":0,"o":"m 713 681 b 694 663 701 681 694 671 l 694 493 b 408 681 642 603 533 681 b 88 340 231 681 88 526 b 408 0 88 154 231 0 b 694 188 533 0 642 76 l 694 18 b 713 0 694 7 701 0 b 729 18 722 0 729 7 l 729 663 b 713 681 729 671 722 681 z m 408 35 b 122 340 251 35 122 171 b 408 644 122 508 251 644 b 694 340 565 644 694 508 b 408 35 694 171 565 35 z m 254 808 b 321 863 271 846 290 863 b 499 808 371 863 449 808 b 608 903 553 808 590 847 b 611 919 610 907 611 915 b 586 943 611 933 600 943 b 568 919 574 943 572 928 b 499 860 551 882 529 860 b 321 913 451 860 374 913 b 215 829 283 913 229 872 b 210 810 214 825 210 814 b 232 792 210 796 218 792 b 254 808 246 792 250 800 z "},"è":{"ha":846,"x_min":0,"x_max":0,"o":"m 411 0 b 81 340 229 3 83 154 b 411 681 83 529 229 681 b 738 367 585 681 725 543 l 738 365 l 738 363 l 738 361 b 721 344 736 353 729 344 l 115 344 l 115 340 b 411 35 115 174 247 36 b 656 174 514 35 604 90 b 681 178 661 182 671 182 b 685 154 688 174 690 163 b 411 0 626 64 525 0 z m 411 644 b 117 378 260 644 135 529 l 703 378 b 411 644 685 529 560 644 z m 479 796 b 489 800 488 792 489 793 b 483 815 489 806 486 811 l 397 944 b 358 969 386 961 375 969 b 333 949 332 969 338 956 b 347 924 329 942 339 932 l 446 817 b 479 796 461 800 465 801 z "},"é":{"ha":846,"x_min":0,"x_max":0,"o":"m 411 0 b 685 154 525 0 626 64 b 681 178 690 163 688 174 b 656 174 671 182 661 182 b 411 35 604 90 514 35 b 115 340 247 36 115 174 l 115 344 l 721 344 b 738 361 729 344 736 353 l 738 363 l 738 365 l 738 367 b 411 681 725 543 585 681 b 81 340 229 681 83 529 b 411 0 83 154 229 3 z m 411 644 b 703 378 560 644 685 529 l 117 378 b 411 644 135 529 260 644 z m 339 796 b 372 817 353 801 357 800 l 471 924 b 485 949 479 932 489 942 b 460 969 481 956 486 969 b 421 944 443 969 432 961 l 335 815 b 329 800 332 811 329 806 b 339 796 329 793 331 792 z "},"ê":{"ha":846,"x_min":0,"x_max":0,"o":"m 411 0 b 81 340 229 3 83 154 b 411 681 83 529 229 681 b 738 367 585 681 725 543 l 738 365 l 738 363 l 738 361 b 721 344 736 353 729 344 l 115 344 l 115 340 b 411 35 115 174 247 36 b 656 174 514 35 604 90 b 681 178 661 182 671 182 b 685 154 688 174 690 163 b 411 0 626 64 525 0 z m 411 644 b 117 378 260 644 135 529 l 703 378 b 411 644 685 529 560 644 z m 408 926 l 506 822 b 543 796 514 814 528 796 b 561 799 556 796 561 792 b 554 815 561 804 560 808 l 454 938 b 415 963 442 953 432 963 l 404 963 b 365 938 388 963 378 953 l 265 815 b 258 799 260 808 258 804 b 278 796 258 792 267 796 b 313 821 292 796 306 814 z "},"ñ":{"ha":851,"x_min":0,"x_max":0,"o":"m 644 18 l 644 406 b 406 646 644 540 536 646 b 165 406 275 646 165 540 l 165 18 b 161 7 165 14 164 10 b 149 0 158 3 154 0 l 146 0 l 143 0 b 139 3 142 1 140 1 b 135 6 138 3 136 4 b 133 8 133 7 133 7 b 131 15 132 10 131 13 l 131 18 l 131 406 l 131 417 l 131 664 b 149 681 131 675 139 681 b 165 664 158 681 165 675 l 165 539 b 406 681 213 624 303 681 b 679 406 556 681 679 558 l 679 18 b 661 0 679 8 671 0 b 644 18 650 0 644 8 z m 249 808 b 315 863 265 846 285 863 b 493 808 365 863 443 808 b 603 903 547 808 585 847 b 606 919 604 907 606 915 b 581 943 606 933 594 943 b 563 919 568 943 567 928 b 493 860 546 882 524 860 b 315 913 446 860 368 913 b 210 829 278 913 224 872 b 204 810 208 825 204 814 b 226 792 204 796 213 792 b 249 808 240 792 244 800 z "},"ò":{"ha":889,"x_min":0,"x_max":0,"o":"m 81 340 b 401 681 81 528 224 681 l 401 681 b 724 340 579 681 724 528 l 724 340 b 401 0 724 154 579 0 l 401 0 b 81 340 224 0 81 154 l 81 340 z m 115 340 b 401 35 115 172 244 35 l 401 35 b 689 340 558 35 689 172 l 689 340 b 401 646 689 510 558 646 l 401 646 b 115 340 244 646 115 510 l 115 340 z m 472 796 b 482 800 481 792 482 793 b 476 815 482 806 479 811 l 390 944 b 351 969 379 961 368 969 b 326 949 325 969 331 956 b 340 924 322 942 332 932 l 439 817 b 472 796 454 800 458 801 z "},"ó":{"ha":889,"x_min":0,"x_max":0,"o":"m 81 340 l 81 340 b 401 0 81 154 224 0 l 401 0 b 724 340 579 0 724 154 l 724 340 b 401 681 724 528 579 681 l 401 681 b 81 340 224 681 81 528 z m 115 340 l 115 340 b 401 646 115 510 244 646 l 401 646 b 689 340 558 646 689 510 l 689 340 b 401 35 689 172 558 35 l 401 35 b 115 340 244 35 115 172 z m 331 796 b 364 817 344 801 349 800 l 463 924 b 476 949 471 932 481 942 b 451 969 472 956 478 969 b 413 944 435 969 424 961 l 326 815 b 321 800 324 811 321 806 b 331 796 321 793 322 792 z "},"ô":{"ha":889,"x_min":0,"x_max":0,"o":"m 81 340 b 401 681 81 528 224 681 l 401 681 b 724 340 579 681 724 528 l 724 340 b 401 0 724 154 579 0 l 401 0 b 81 340 224 0 81 154 l 81 340 z m 115 340 b 401 35 115 172 244 35 l 401 35 b 689 340 558 35 689 172 l 689 340 b 401 646 689 510 558 646 l 401 646 b 115 340 244 646 115 510 l 115 340 z m 399 926 l 496 822 b 533 796 504 814 518 796 b 551 799 546 796 551 792 b 544 815 551 804 550 808 l 444 938 b 406 963 432 953 422 963 l 394 963 b 356 938 378 963 368 953 l 256 815 b 249 799 250 808 249 804 b 268 796 249 792 257 796 b 303 821 282 796 296 814 z "},"õ":{"ha":889,"x_min":0,"x_max":0,"o":"m 81 340 b 401 681 81 528 224 681 l 401 681 b 724 340 579 681 724 528 l 724 340 b 401 0 724 154 579 0 l 401 0 b 81 340 224 0 81 154 l 81 340 z m 115 340 b 401 35 115 172 244 35 l 401 35 b 689 340 558 35 689 172 l 689 340 b 401 646 689 510 558 646 l 401 646 b 115 340 244 646 115 510 l 115 340 z m 246 808 b 313 863 263 846 282 863 b 490 808 363 863 440 808 b 600 903 544 808 582 847 b 603 919 601 907 603 915 b 578 943 603 933 592 943 b 560 919 565 943 564 928 b 490 860 543 882 521 860 b 313 913 443 860 365 913 b 207 829 275 913 221 872 b 201 810 206 825 201 814 b 224 792 201 796 210 792 b 246 808 238 792 242 800 z "},"ù":{"ha":851,"x_min":0,"x_max":0,"o":"m 115 275 l 115 663 b 133 681 115 672 122 681 l 133 681 b 150 663 142 681 150 672 l 150 663 l 150 275 b 388 35 150 142 257 35 l 388 35 b 626 275 519 35 626 142 l 626 275 l 626 663 b 644 681 626 672 636 681 l 644 681 b 663 663 654 681 663 672 l 663 663 l 663 275 b 388 0 663 122 539 0 l 388 0 b 115 275 238 0 115 122 l 115 275 z m 414 796 b 424 800 422 792 424 793 b 418 815 424 806 421 811 l 332 944 b 293 969 321 961 310 969 b 268 949 267 969 272 956 b 282 924 264 942 274 932 l 381 817 b 414 796 396 800 400 801 z "},"ú":{"ha":851,"x_min":0,"x_max":0,"o":"m 115 275 l 115 275 b 388 0 115 122 238 0 l 388 0 b 663 275 539 0 663 122 l 663 663 l 663 663 b 644 681 663 672 654 681 l 644 681 b 626 663 636 681 626 672 l 626 275 l 626 275 b 388 35 626 142 519 35 l 388 35 b 150 275 257 35 150 142 l 150 663 l 150 663 b 133 681 150 672 142 681 l 133 681 b 115 663 122 681 115 672 z m 326 796 b 360 817 340 801 344 800 l 458 924 b 472 949 467 932 476 942 b 447 969 468 956 474 969 b 408 944 431 969 419 961 l 322 815 b 317 800 319 811 317 806 b 326 796 317 793 318 792 z "},"û":{"ha":851,"x_min":0,"x_max":0,"o":"m 115 275 l 115 663 b 133 681 115 672 122 681 l 133 681 b 150 663 142 681 150 672 l 150 663 l 150 275 b 388 35 150 142 257 35 l 388 35 b 626 275 519 35 626 142 l 626 275 l 626 663 b 644 681 626 672 636 681 l 644 681 b 663 663 654 681 663 672 l 663 663 l 663 275 b 388 0 663 122 539 0 l 388 0 b 115 275 238 0 115 122 l 115 275 z m 371 926 l 468 822 b 506 796 476 814 490 796 b 524 799 518 796 524 792 b 517 815 524 804 522 808 l 417 938 b 378 963 404 953 394 963 l 367 963 b 328 938 350 963 340 953 l 228 815 b 221 799 222 808 221 804 b 240 796 221 792 229 796 b 275 821 254 796 268 814 z "},"ý":{"ha":817,"x_min":0,"x_max":0,"o":"m 72 275 b 346 3 72 125 194 3 b 581 142 447 3 536 58 l 581 39 b 296 -246 581 -118 454 -246 b 171 -215 250 -246 210 -235 b 150 -224 164 -212 153 -215 b 157 -247 144 -233 147 -243 b 296 -281 199 -268 246 -281 b 615 39 474 -281 615 -136 l 615 663 b 611 674 615 667 614 671 b 610 675 611 674 611 675 l 606 679 b 601 681 604 679 603 681 l 599 681 b 589 678 594 681 592 679 l 585 674 b 583 672 583 674 583 672 b 581 665 582 669 581 667 l 581 663 l 581 265 b 346 38 575 139 472 38 b 107 275 214 38 107 144 l 107 663 b 90 681 107 672 99 681 b 72 663 79 681 72 672 z m 328 796 b 361 817 342 801 346 800 l 460 924 b 474 949 468 932 478 942 b 449 969 469 956 475 969 b 410 944 432 969 421 961 l 324 815 b 318 800 321 811 318 806 b 328 796 318 793 319 792 z "},"À":{"ha":901,"x_min":0,"x_max":0,"o":"m 783 15 l 690 264 l 204 264 l 111 15 b 96 3 110 8 103 3 b 89 4 94 3 92 4 b 81 28 81 8 76 18 l 431 961 b 449 972 433 969 440 974 b 467 961 456 972 463 968 l 817 28 b 807 4 821 18 815 8 b 801 3 804 4 803 3 b 783 15 794 3 788 8 z m 218 300 l 676 300 l 447 908 z m 497 1108 b 507 1113 506 1104 507 1106 b 501 1128 507 1118 504 1124 l 415 1257 b 376 1282 404 1274 393 1282 b 351 1261 350 1282 356 1268 b 365 1236 347 1254 357 1244 l 464 1129 b 497 1108 479 1113 483 1114 z "},"Á":{"ha":897,"x_min":0,"x_max":0,"o":"m 783 15 b 801 3 788 8 794 3 b 807 4 803 3 804 4 b 817 28 815 8 821 18 l 467 961 b 449 972 463 968 456 972 b 431 961 440 974 433 969 l 81 28 b 89 4 76 18 81 8 b 96 3 92 4 94 3 b 111 15 103 3 110 8 l 204 264 l 690 264 z m 447 908 l 676 300 l 218 300 z m 410 1108 b 443 1129 424 1114 428 1113 l 542 1236 b 556 1261 550 1244 560 1254 b 531 1282 551 1268 557 1282 b 492 1257 514 1282 503 1274 l 406 1128 b 400 1113 403 1124 400 1118 b 410 1108 400 1106 401 1104 z "},"Â":{"ha":922,"x_min":0,"x_max":0,"o":"m 785 15 l 692 264 l 206 264 l 113 15 b 97 3 111 8 104 3 b 90 4 96 3 93 4 b 82 28 82 8 78 18 l 432 961 b 450 972 435 969 442 974 b 468 961 457 972 464 968 l 818 28 b 808 4 822 18 817 8 b 803 3 806 4 804 3 b 785 15 796 3 789 8 z m 219 300 l 678 300 l 449 908 z m 457 1242 l 554 1138 b 592 1111 563 1129 576 1111 b 610 1114 604 1111 610 1107 b 603 1131 610 1119 608 1124 l 503 1253 b 464 1278 490 1268 481 1278 l 453 1278 b 414 1253 436 1278 426 1268 l 314 1131 b 307 1114 308 1124 307 1119 b 326 1111 307 1107 315 1111 b 361 1136 340 1111 354 1129 z "},"Ã":{"ha":922,"x_min":0,"x_max":0,"o":"m 785 15 l 692 264 l 206 264 l 113 15 b 97 3 111 8 104 3 b 90 4 96 3 93 4 b 82 28 82 8 78 18 l 432 961 b 450 972 435 969 442 974 b 468 961 457 972 464 968 l 818 28 b 808 4 822 18 817 8 b 803 3 806 4 804 3 b 785 15 796 3 789 8 z m 219 300 l 678 300 l 449 908 z m 294 1114 b 361 1168 311 1151 331 1168 b 539 1114 411 1168 489 1114 b 649 1208 593 1114 631 1153 b 651 1225 650 1213 651 1221 b 626 1249 651 1239 640 1249 b 608 1225 614 1249 613 1233 b 539 1165 592 1188 569 1165 b 361 1218 492 1165 414 1218 b 256 1135 324 1218 269 1178 b 250 1115 254 1131 250 1119 b 272 1097 250 1101 258 1097 b 294 1114 286 1097 290 1106 z "},"÷":{"ha":861,"x_min":0,"x_max":0,"o":"m 122 456 b 89 489 104 456 89 471 b 122 522 89 507 104 522 l 739 522 b 772 489 757 522 772 507 b 739 456 772 471 757 456 z m 381 760 b 444 696 381 725 410 696 b 508 760 479 696 508 725 b 444 824 508 794 479 824 b 381 760 410 824 381 794 z m 381 219 b 444 156 381 185 410 156 b 508 219 479 156 508 185 b 444 283 508 254 479 283 b 381 219 410 283 381 254 z "},"¡":{"ha":350,"x_min":0,"x_max":0,"o":"m 129 740 l 129 18 b 147 0 129 7 136 0 l 147 0 b 164 18 156 0 164 7 l 164 18 l 164 740 b 147 757 164 750 156 757 l 147 757 b 129 740 136 757 129 750 l 129 740 z m 129 954 l 129 921 b 147 904 129 913 136 904 l 147 904 b 164 921 156 904 164 913 l 164 921 l 164 954 b 147 972 164 965 156 972 l 147 972 b 129 954 136 972 129 965 l 129 954 z "},"¿":{"ha":742,"x_min":0,"x_max":0,"o":"m 315 757 l 315 575 l 315 572 l 315 571 b 332 554 315 561 322 554 b 590 294 474 554 590 436 b 332 33 590 150 474 33 b 106 164 235 33 151 85 b 83 169 100 171 90 174 b 78 147 75 164 72 154 b 332 0 128 58 222 0 b 625 294 492 0 625 132 b 349 588 625 450 500 579 l 349 757 b 332 774 349 765 340 774 b 315 757 322 774 315 765 z m 315 956 l 315 924 b 332 907 315 915 322 907 b 349 924 340 907 349 915 l 349 956 b 332 972 349 965 340 972 b 315 956 322 972 315 965 z "},"Ÿ":{"ha":994,"x_min":0,"x_max":0,"o":"m 272 1079 b 319 1032 272 1053 293 1032 b 367 1079 346 1032 367 1053 b 319 1126 367 1106 346 1126 b 272 1079 293 1126 272 1106 z m 524 1079 b 571 1032 524 1053 544 1032 b 618 1079 597 1032 618 1053 b 571 1126 618 1106 597 1126 b 524 1079 544 1126 524 1106 z m 422 18 l 422 475 l 82 943 b 86 967 75 950 76 961 b 110 964 93 972 104 971 l 440 510 l 769 964 b 794 967 776 971 788 972 b 800 943 803 961 806 950 l 457 475 l 457 18 b 440 0 457 8 450 0 b 422 18 431 0 422 8 z "},"™":{"ha":958,"x_min":0,"x_max":0,"o":"m 178 561 b 185 554 178 557 181 554 b 192 561 188 554 192 557 l 192 958 l 329 958 b 338 965 335 958 338 961 b 329 972 338 969 335 972 l 38 972 b 31 965 33 972 31 969 b 38 958 31 961 33 958 l 178 958 z m 750 561 b 757 554 750 557 753 554 b 764 561 761 554 764 557 l 764 964 b 757 972 764 968 761 972 b 754 971 756 972 756 972 b 750 969 753 971 751 969 l 590 746 l 428 969 b 424 971 426 969 425 971 b 421 972 422 972 422 972 b 414 964 418 972 414 968 l 414 561 b 421 554 414 557 418 554 b 428 561 425 554 428 557 l 428 942 l 582 729 b 588 726 583 728 585 726 l 590 726 b 597 729 593 726 594 728 l 750 942 z "},"°":{"ha":625,"x_min":0,"x_max":0,"o":"m 310 572 b 517 775 431 572 517 667 l 517 778 b 310 981 517 893 419 981 b 103 778 200 981 103 901 l 103 775 b 310 572 103 664 193 572 z m 310 599 b 133 775 208 599 133 683 l 133 778 b 310 956 133 869 208 956 b 486 778 411 956 486 869 l 486 775 b 310 599 486 683 411 599 z "},"®":{"ha":578,"x_min":0,"x_max":0,"o":"m 289 500 b 531 743 424 500 531 611 l 531 744 b 289 986 531 876 425 986 b 47 743 154 986 47 875 l 47 742 b 289 500 47 610 153 500 z m 289 513 b 61 742 158 513 61 615 l 61 743 b 289 974 61 869 160 974 b 517 744 419 974 517 871 l 517 743 b 289 513 517 617 418 513 z m 371 601 b 361 654 365 611 361 625 b 339 701 361 675 351 692 b 301 722 328 714 311 719 b 290 725 294 724 290 725 l 206 725 l 206 592 b 199 585 206 589 201 585 b 193 592 196 585 193 589 l 193 894 b 199 900 193 897 196 900 l 199 900 l 200 900 l 292 900 b 378 813 339 900 378 861 b 315 728 378 772 353 739 b 332 721 321 726 328 724 b 374 654 351 710 374 688 b 379 607 374 626 376 614 b 388 601 383 601 386 601 l 388 601 b 394 597 390 601 393 600 b 390 592 394 596 393 592 b 388 590 390 590 389 590 b 371 601 382 590 375 593 z m 292 738 l 292 738 b 368 813 333 738 368 771 b 292 888 368 856 333 888 l 206 888 l 206 738 z "},"©":{"ha":1153,"x_min":0,"x_max":0,"o":"m 575 -17 b 1079 486 857 -17 1079 213 l 1079 489 b 578 989 1079 763 860 989 b 74 486 296 989 74 760 l 74 483 b 575 -17 74 210 293 -17 z m 575 22 b 115 483 313 22 115 229 l 115 486 b 578 950 115 740 314 950 b 1038 489 840 950 1038 743 l 1038 486 b 575 22 1038 232 839 22 z m 582 231 b 768 306 665 231 717 261 b 778 326 774 310 778 318 b 750 354 778 342 765 354 b 731 347 742 354 735 350 b 583 286 688 308 646 286 b 390 493 476 286 390 381 l 390 496 b 582 701 390 608 472 701 b 722 643 640 701 685 675 b 744 633 729 638 736 633 b 775 663 761 633 775 646 b 763 688 775 672 769 682 b 583 757 718 726 665 757 b 329 494 440 757 329 636 l 329 492 b 582 231 329 349 439 231 z "},"¨":{"ha":694,"x_min":0,"x_max":0,"o":"m 185 885 b 232 838 185 858 206 838 b 278 885 258 838 278 858 b 232 932 278 911 258 932 b 185 885 206 932 185 911 z m 438 885 b 485 838 438 858 458 838 b 532 885 511 838 532 858 b 485 932 532 911 511 932 b 438 885 458 932 438 911 z "},"…":{"ha":944,"x_min":0,"x_max":0,"o":"m 114 42 b 174 -18 114 8 140 -18 b 233 42 207 -18 233 8 b 174 101 233 75 207 101 b 114 42 140 101 114 75 z m 407 42 b 467 -18 407 8 433 -18 b 526 42 500 -18 526 8 b 467 101 526 75 500 101 b 407 42 433 101 407 75 z m 700 42 b 760 -18 700 8 726 -18 b 819 42 793 -18 819 8 b 760 101 819 75 793 101 b 700 42 726 101 700 75 z "},"„":{"ha":569,"x_min":0,"x_max":0,"o":"m 75 -125 b 96 -146 75 -139 86 -146 b 168 -101 108 -146 143 -126 b 206 43 193 -76 206 -35 l 206 78 b 160 124 206 104 186 124 b 114 78 133 124 114 104 l 114 49 b 151 0 114 21 131 6 b 86 -107 156 -49 136 -79 b 75 -125 79 -111 75 -118 z m 325 -125 b 346 -146 325 -139 336 -146 b 418 -101 358 -146 393 -126 b 456 43 443 -76 456 -35 l 456 78 b 410 124 456 103 435 124 b 364 78 385 124 364 103 l 364 49 b 401 0 364 21 381 6 b 336 -107 406 -49 386 -79 b 325 -125 329 -111 325 -118 z "},"æ":{"ha":1325,"x_min":0,"x_max":0,"o":"m 1017 679 b 714 469 881 679 764 593 l 714 664 b 697 682 714 672 707 682 b 679 664 686 682 679 672 l 679 494 b 392 682 626 604 518 682 b 71 340 214 682 71 528 b 392 0 71 154 214 0 b 679 188 518 0 626 76 l 679 18 b 697 0 679 7 686 0 b 714 18 707 0 714 7 l 714 210 b 1017 0 764 89 881 1 b 1290 154 1131 0 1232 64 b 1286 178 1296 163 1293 174 b 1261 174 1276 182 1267 182 b 1017 35 1210 90 1119 35 b 722 339 854 36 722 174 l 722 343 l 1326 343 b 1343 360 1335 343 1342 351 l 1343 361 l 1343 364 l 1343 365 b 1017 679 1331 542 1190 679 z m 392 35 b 106 340 235 35 106 171 b 392 646 106 510 235 646 b 679 340 550 646 679 510 b 392 35 679 171 550 35 z m 724 376 b 1017 643 742 528 867 643 b 1308 376 1165 643 1290 528 l 724 376 z "},"œ":{"ha":1465,"x_min":0,"x_max":0,"o":"m 1024 0 b 1297 154 1138 0 1239 64 b 1293 178 1303 163 1300 174 b 1268 174 1283 182 1274 182 b 1024 35 1217 90 1126 35 b 729 339 861 36 729 174 l 729 343 l 1333 343 b 1350 360 1342 343 1349 351 l 1350 365 b 1024 679 1338 542 1197 679 b 710 439 876 679 751 578 b 401 681 669 578 546 681 b 81 340 224 681 81 528 b 401 0 81 154 224 0 b 710 242 546 0 669 103 b 1024 0 751 104 876 1 z m 115 340 b 401 646 115 510 244 646 b 689 340 558 646 689 510 b 401 35 689 172 558 35 b 115 340 244 35 115 172 z m 1024 643 b 1315 376 1172 643 1297 528 l 731 376 b 1024 643 749 528 874 643 z "},"å":{"ha":797,"x_min":0,"x_max":0,"o":"m 393 792 b 506 903 458 792 506 843 l 506 904 b 393 1013 506 967 453 1013 b 281 904 333 1013 281 971 l 281 903 b 393 792 281 842 331 792 z m 393 822 b 314 901 347 822 314 861 l 314 903 b 393 982 314 943 347 982 b 472 903 439 982 472 943 l 472 901 b 393 822 472 861 439 822 z m 696 681 b 678 663 685 681 678 671 l 678 493 b 392 681 625 603 517 681 b 71 340 214 681 71 526 b 392 0 71 154 214 0 b 678 188 517 0 625 76 l 678 18 b 696 0 678 7 685 0 b 713 18 706 0 713 7 l 713 663 b 696 681 713 671 706 681 z m 392 35 b 106 340 235 35 106 171 b 392 644 106 508 235 644 b 678 340 549 644 678 508 b 392 35 678 171 549 35 z "},"Æ":{"ha":1451,"x_min":0,"x_max":0,"o":"m 58 26 b 68 -1 60 31 49 1 b 94 11 86 -4 92 7 l 261 286 l 696 286 l 696 36 b 732 0 696 17 713 0 l 1346 0 b 1379 21 1364 0 1379 3 b 1346 40 1379 39 1364 40 l 738 40 l 738 468 l 1276 468 b 1310 490 1294 468 1310 472 b 1276 513 1310 508 1294 513 l 738 513 l 738 933 l 1339 933 b 1372 953 1357 933 1372 935 b 1339 972 1372 971 1357 972 l 649 972 b 613 950 631 972 621 964 b 58 26 61 39 61 32 z m 285 324 l 651 935 l 696 935 l 696 324 z "},"Š":{"ha":889,"x_min":0,"x_max":0,"o":"m 372 1207 b 338 1232 365 1214 351 1232 b 318 1229 326 1232 318 1236 b 325 1213 318 1224 319 1219 l 425 1090 b 464 1065 438 1075 447 1065 l 475 1065 b 514 1090 492 1065 501 1075 l 614 1213 b 621 1229 619 1219 621 1224 b 603 1232 621 1236 615 1232 b 565 1206 588 1232 574 1214 l 468 1101 z m 99 142 l 99 142 b 456 1 178 78 310 1 l 456 1 b 810 265 647 1 808 115 l 810 265 b 707 440 810 340 769 399 l 707 440 b 458 528 643 482 558 508 l 456 528 l 456 528 b 238 606 367 544 290 569 l 238 606 b 156 742 185 642 156 685 l 156 742 b 240 890 156 799 188 851 l 240 890 b 453 954 294 929 369 954 l 453 954 b 736 846 569 954 657 897 l 736 846 b 757 850 743 842 753 843 l 757 850 b 753 872 763 858 760 868 l 753 872 l 753 872 b 453 986 675 924 579 986 l 453 986 b 124 742 275 986 125 881 l 124 742 b 219 579 124 672 161 618 l 219 579 b 450 497 278 540 358 514 l 453 496 l 453 496 b 689 414 550 479 632 453 l 689 414 b 778 265 746 375 778 328 l 778 265 b 685 103 778 203 743 146 l 685 103 b 456 33 626 60 546 33 l 456 33 b 118 167 321 33 194 106 l 118 167 b 96 165 111 172 101 171 l 96 165 b 99 142 90 158 92 147 z "},"š":{"ha":690,"x_min":0,"x_max":0,"o":"m 250 894 b 215 919 243 901 229 919 b 196 917 204 919 196 924 b 203 900 196 911 197 907 l 303 778 b 342 753 315 763 325 753 l 353 753 b 392 778 369 753 379 763 l 492 900 b 499 917 497 907 499 911 b 481 919 499 924 493 919 b 443 893 465 919 451 901 l 346 789 z m 79 97 l 79 97 b 326 0 133 53 224 0 l 326 0 b 572 186 458 0 571 79 l 572 186 b 500 311 572 239 543 282 l 500 311 b 329 369 456 340 397 356 l 328 369 l 328 369 b 181 422 267 382 215 399 l 181 422 b 129 508 146 446 129 472 l 129 508 b 183 603 129 544 149 576 l 183 603 b 325 646 218 629 268 646 l 325 646 b 511 572 400 646 458 607 l 511 572 b 536 578 519 567 531 569 l 536 578 b 531 601 540 585 539 596 l 531 601 l 531 601 b 325 681 478 638 411 681 l 325 681 b 93 508 200 681 94 607 l 93 508 b 161 393 93 460 121 419 l 161 393 b 319 338 201 364 257 347 l 324 338 l 324 338 b 481 282 389 325 442 307 l 481 282 b 538 186 518 256 536 225 l 538 186 b 476 81 538 146 515 108 l 476 81 b 326 35 438 53 386 35 l 326 35 b 101 122 236 35 151 82 l 101 122 b 76 119 93 131 82 129 l 76 119 b 79 97 71 113 71 103 z "},"[":{"ha":597,"x_min":0,"x_max":0,"o":"m 136 -144 b 172 -181 136 -164 153 -181 l 494 -181 b 519 -165 508 -181 519 -179 b 494 -147 519 -151 508 -147 l 171 -147 l 171 939 l 494 939 b 519 953 508 939 519 939 b 494 972 519 967 508 972 l 172 972 b 136 936 153 972 136 956 z "},"]":{"ha":597,"x_min":0,"x_max":0,"o":"m 460 936 b 424 972 460 956 443 972 l 101 972 b 76 953 88 972 76 967 b 101 939 76 939 88 939 l 425 939 l 425 -147 l 101 -147 b 76 -165 88 -147 76 -151 b 101 -181 76 -179 88 -181 l 424 -181 b 460 -144 443 -181 460 -164 z "},"{":{"ha":667,"x_min":0,"x_max":0,"o":"m 564 -193 b 593 -182 579 -196 593 -199 b 576 -162 593 -171 585 -165 b 325 94 375 -110 325 -43 l 325 199 b 181 399 325 322 274 368 b 325 599 268 425 325 475 l 325 703 b 576 960 325 840 375 907 b 593 978 585 963 593 967 b 564 990 593 994 579 993 b 285 711 329 943 285 854 l 285 601 b 110 425 285 493 253 425 b 76 399 88 425 76 414 b 110 372 76 383 88 372 b 285 196 253 372 285 304 l 285 86 b 564 -193 285 -57 329 -146 z "},"}":{"ha":667,"x_min":0,"x_max":0,"o":"m 103 -193 b 382 86 338 -146 382 -57 l 382 196 b 557 372 382 304 414 372 b 590 399 579 372 590 383 b 557 425 590 414 579 425 b 382 601 414 425 382 493 l 382 711 b 103 990 382 854 338 943 b 74 978 88 993 74 994 b 90 960 74 967 82 963 b 342 703 292 907 342 840 l 342 599 b 486 399 342 475 399 425 b 342 199 393 368 342 322 l 342 94 b 90 -162 342 -43 292 -110 b 74 -182 82 -165 74 -171 b 103 -193 74 -199 88 -196 z "},"$":{"ha":878,"x_min":0,"x_max":0,"o":"m 804 260 b 701 435 804 335 764 393 b 458 521 639 475 556 501 l 458 949 b 731 840 569 944 654 890 b 751 844 738 836 747 838 b 747 867 757 853 754 863 b 458 981 672 917 579 976 l 458 1018 b 442 1049 458 1035 458 1049 b 428 1018 425 1049 428 1035 l 428 981 b 118 736 258 972 119 869 b 214 574 118 667 156 613 b 428 494 268 538 343 511 l 428 28 b 113 161 301 36 185 103 b 90 160 106 167 96 165 b 93 136 85 153 86 142 b 428 -4 168 75 290 4 l 428 -37 b 442 -68 428 -54 425 -68 b 458 -37 458 -68 458 -54 l 458 -4 b 804 260 646 -1 803 113 z m 232 600 b 150 736 179 636 150 679 b 235 885 150 793 182 846 b 428 949 285 921 353 944 l 428 526 b 232 600 349 543 281 567 z m 679 97 b 458 28 622 56 546 29 l 458 489 b 683 408 550 471 629 446 b 772 260 740 369 772 322 b 679 97 772 197 738 140 z "},"|":{"ha":397,"x_min":0,"x_max":0,"o":"m 168 -153 b 186 -183 168 -169 169 -183 b 208 -153 203 -183 208 -169 l 208 1083 b 186 1114 208 1100 203 1114 b 168 1083 169 1114 168 1100 z "},"£":{"ha":894,"x_min":0,"x_max":0,"o":"m 92 -1 b 110 -10 92 -11 100 -10 l 779 -10 b 813 7 797 -10 813 -11 b 779 24 813 25 797 24 l 251 25 l 251 432 l 674 432 b 707 447 692 432 707 429 b 674 467 707 465 692 467 l 251 467 l 251 646 b 333 875 251 735 288 829 b 515 944 372 914 449 944 b 744 842 625 944 689 906 b 778 808 751 835 765 808 b 803 821 793 808 803 801 b 793 847 803 831 799 840 b 515 976 732 919 651 976 b 307 896 431 976 358 947 b 217 644 249 838 217 749 l 217 467 l 125 467 b 92 447 107 467 92 465 b 125 432 92 429 107 432 l 217 432 l 217 25 l 108 13 b 92 -1 97 11 92 8 z "},"¥":{"ha":953,"x_min":0,"x_max":0,"o":"m 421 18 b 439 0 421 8 429 0 b 456 18 449 0 456 8 l 456 246 l 676 246 b 697 264 688 246 697 253 b 676 286 697 275 688 286 l 456 286 l 456 458 l 676 458 b 697 475 688 458 697 467 b 676 496 697 486 688 496 l 471 496 l 799 943 b 793 967 804 950 801 961 b 768 964 786 972 775 971 l 439 510 l 108 964 b 85 967 103 971 92 972 b 81 943 75 961 74 950 l 406 496 l 201 496 b 181 475 189 496 181 486 b 201 458 181 467 189 458 l 421 458 l 421 286 l 201 286 b 181 264 189 286 181 275 b 201 246 181 253 189 246 l 421 246 l 421 18 z "},"Ø":{"ha":1181,"x_min":0,"x_max":0,"o":"m 140 19 l 140 19 b 146 15 140 17 144 15 l 146 15 b 164 19 153 13 160 14 l 1007 890 l 1007 890 b 1004 915 1013 897 1011 910 l 1004 915 b 979 914 997 922 985 921 l 140 44 l 140 44 b 140 19 133 36 133 25 z m 101 485 l 101 485 b 575 -18 103 206 313 -18 l 575 -18 b 1050 485 838 -18 1047 206 l 1050 485 b 575 986 1047 763 838 986 l 575 986 b 101 485 313 986 103 763 z m 139 485 l 139 485 b 575 950 139 743 336 950 l 575 950 b 1011 485 813 950 1010 743 l 1011 485 b 575 19 1010 228 813 22 l 575 19 b 139 485 336 22 139 228 z "},"ø":{"ha":889,"x_min":0,"x_max":0,"o":"m 111 -15 l 111 -15 b 117 -18 113 -15 115 -18 l 117 -18 b 135 -14 124 -21 132 -19 l 721 628 l 721 628 b 718 651 726 635 725 646 l 718 651 b 694 651 711 660 699 657 l 113 11 l 113 11 b 111 -15 104 3 104 -8 z m 81 340 l 81 340 b 401 0 81 154 224 0 l 401 0 b 724 340 579 0 724 154 l 724 340 b 401 681 724 528 579 681 l 401 681 b 81 340 224 681 81 528 z m 115 340 l 115 340 b 401 646 115 510 244 646 l 401 646 b 689 340 558 646 689 510 l 689 340 b 401 35 689 172 558 35 l 401 35 b 115 340 244 35 115 172 z "},"Ð":{"ha":1128,"x_min":0,"x_max":0,"o":"m 229 18 b 247 0 229 8 236 0 l 433 0 b 919 488 703 0 919 218 b 433 972 919 754 703 972 l 247 972 b 229 954 236 972 229 964 l 229 504 l 90 504 b 76 489 82 504 76 497 b 90 476 76 481 82 476 l 229 476 z m 264 35 l 264 476 l 407 476 b 419 489 415 476 419 481 b 407 504 419 497 415 504 l 264 504 l 264 938 l 433 938 b 885 488 683 938 883 735 b 433 35 883 238 683 38 z "},"×":{"ha":861,"x_min":0,"x_max":0,"o":"m 711 722 b 722 747 718 729 722 738 b 689 781 722 765 707 781 b 664 769 679 781 671 776 l 432 535 l 201 768 b 174 781 194 775 185 781 b 139 746 154 781 139 765 b 151 718 139 735 144 725 l 385 488 l 150 256 b 139 231 143 249 139 240 b 172 197 139 213 154 197 b 197 208 182 197 190 201 l 429 443 l 660 210 b 688 197 667 203 676 197 b 722 232 707 197 722 213 b 710 260 722 243 717 253 l 476 490 z "},"›":{"ha":432,"x_min":0,"x_max":0,"o":"m 106 625 b 111 603 104 615 104 611 l 307 353 l 111 106 b 117 64 99 90 93 64 b 146 76 128 64 139 67 l 336 324 b 350 354 346 336 350 344 b 336 385 350 364 346 372 l 146 633 b 106 625 139 643 107 642 z "},"^":{"ha":694,"x_min":0,"x_max":0,"o":"m 129 240 b 151 246 139 239 143 239 l 401 442 l 649 246 b 690 251 664 233 690 228 b 678 281 690 263 688 274 l 431 471 b 400 485 418 481 410 485 b 369 471 390 485 382 481 l 121 281 b 129 240 111 274 113 242 z "},"‹":{"ha":432,"x_min":0,"x_max":0,"o":"m 321 625 b 281 633 319 642 288 643 l 90 385 b 76 354 81 372 76 364 b 90 324 76 344 81 336 l 281 76 b 310 64 288 67 299 64 b 315 106 333 64 328 90 l 119 353 l 315 603 b 321 625 322 611 322 615 z "},"–":{"ha":733,"x_min":0,"x_max":0,"o":"m 128 389 l 606 389 b 642 413 625 389 642 393 b 606 440 642 432 625 440 l 128 440 b 92 413 108 440 92 432 b 128 389 92 403 100 386 z "},"—":{"ha":1247,"x_min":0,"x_max":0,"o":"m 128 389 l 724 389 b 760 413 743 389 760 393 b 724 440 760 432 743 440 l 128 440 b 92 413 108 440 92 432 b 128 389 92 403 100 386 z "},"¢":{"ha":807,"x_min":0,"x_max":0,"o":"m 211 -14 b 218 -15 213 -15 217 -15 b 232 -4 225 -15 232 -11 l 258 47 b 435 0 310 18 369 0 b 651 74 515 0 592 28 b 653 99 658 81 658 90 b 629 103 647 106 636 107 b 435 35 575 61 507 35 b 274 78 375 35 321 50 l 550 622 b 629 578 578 611 604 596 b 653 579 638 572 647 572 b 651 606 658 588 658 599 b 565 654 625 625 597 642 l 593 708 b 581 729 596 717 589 728 b 558 719 572 733 561 728 l 531 665 b 435 679 500 674 468 679 b 86 339 243 679 86 526 b 231 65 86 228 143 128 l 201 8 b 211 -14 197 -1 203 -11 z m 435 644 b 515 633 463 644 489 640 l 246 96 b 121 339 169 151 121 240 b 435 644 121 507 260 644 z "},"«":{"ha":715,"x_min":0,"x_max":0,"o":""},"¸":{"ha":694,"x_min":0,"x_max":0,"o":"m 410 14 l 350 14 l 243 -143 b 236 -164 238 -153 236 -158 b 283 -197 236 -179 261 -197 b 319 -169 304 -197 311 -186 z "},"Ç":{"ha":1071,"x_min":0,"x_max":0,"o":"m 101 494 l 101 494 b 606 0 101 222 328 1 l 606 0 b 921 107 725 0 833 42 l 921 107 b 925 132 929 114 932 125 l 925 132 b 899 135 918 140 907 140 l 899 135 l 899 135 b 606 36 818 72 717 36 l 606 36 b 138 494 349 36 138 240 l 138 494 b 606 950 138 746 349 950 l 606 950 b 900 851 718 950 819 914 l 900 851 b 926 854 907 844 918 846 l 926 854 b 921 879 932 861 929 872 l 921 879 b 606 986 836 944 725 986 l 606 986 b 101 494 328 986 101 764 z m 632 14 l 572 14 l 465 -143 b 458 -164 460 -153 458 -158 b 506 -197 458 -179 483 -197 b 542 -169 526 -197 533 -186 z "},"ç":{"ha":793,"x_min":0,"x_max":0,"o":"m 81 340 b 431 0 81 154 238 1 b 647 74 511 0 588 28 b 649 99 654 81 654 90 b 625 103 643 106 632 107 b 431 35 571 61 503 35 b 115 340 254 35 115 172 b 431 646 115 508 254 646 b 625 579 503 646 571 621 b 649 581 633 574 643 574 b 647 607 654 589 654 600 b 431 681 588 654 511 681 b 81 340 238 681 81 528 z m 467 14 l 407 14 l 300 -143 b 293 -164 294 -153 293 -158 b 340 -197 293 -179 318 -197 b 376 -169 361 -197 368 -186 z "},"ß":{"ha":861,"x_min":0,"x_max":0,"o":"m 397 19 b 426 -3 397 3 411 -3 b 775 263 626 4 772 107 b 472 514 778 414 618 489 b 713 778 581 553 713 642 l 713 781 b 436 1024 713 915 603 1018 b 131 694 253 1029 131 888 l 131 28 b 149 -6 131 8 129 -6 b 175 28 168 -6 175 8 l 175 694 b 435 983 175 857 300 983 b 668 781 557 983 668 886 b 425 539 668 656 544 581 b 397 504 410 533 397 522 b 432 471 397 485 411 474 b 725 263 581 451 725 389 b 425 49 725 128 583 57 b 397 19 410 47 397 36 z "},"ƒ":{"ha":703,"x_min":0,"x_max":0,"o":"m 131 -1 b 281 164 214 -1 257 49 l 350 546 l 550 546 b 582 564 567 546 582 547 b 550 583 582 581 567 583 l 361 583 l 396 781 b 556 940 414 879 471 953 b 628 932 535 943 675 932 b 658 946 644 932 658 929 b 631 971 658 963 649 967 b 549 979 603 978 581 979 b 350 785 438 979 376 922 l 314 583 l 178 583 b 146 564 161 583 146 582 b 178 546 146 547 161 546 l 303 546 l 235 168 b 126 43 221 90 199 50 b 78 22 100 40 78 43 b 131 -1 78 4 94 -1 z "},"Ä":{"ha":921,"x_min":0,"x_max":0,"o":"m 785 15 l 692 264 l 206 264 l 113 15 b 97 3 111 8 104 3 b 90 4 96 3 93 4 b 82 28 82 8 78 18 l 432 961 b 450 972 435 969 442 974 b 468 961 457 972 464 968 l 818 28 b 808 4 822 18 817 8 b 803 3 806 4 804 3 b 785 15 796 3 789 8 z m 219 300 l 678 300 l 449 908 z m 275 1163 b 322 1115 275 1136 296 1115 b 368 1163 349 1115 368 1136 b 322 1210 368 1189 349 1210 b 275 1163 296 1210 275 1189 z m 528 1163 b 575 1115 528 1136 549 1115 b 622 1163 601 1115 622 1136 b 575 1210 622 1189 601 1210 b 528 1163 549 1210 528 1189 z "},"Ë":{"ha":931,"x_min":0,"x_max":0,"o":"m 164 0 l 161 0 b 144 18 150 0 144 8 l 144 954 b 161 972 144 963 150 971 l 163 972 l 164 972 l 679 972 b 696 954 689 972 696 964 b 679 938 696 944 689 938 l 179 938 l 179 504 l 619 504 b 636 488 629 504 636 496 b 619 469 636 476 629 469 l 179 469 l 179 35 l 679 35 b 696 18 689 35 696 28 b 679 0 696 8 689 0 l 165 0 z m 244 1163 b 292 1115 244 1136 265 1115 b 338 1163 318 1115 338 1136 b 292 1210 338 1189 318 1210 b 244 1163 265 1210 244 1189 z m 497 1163 b 544 1115 497 1136 518 1115 b 592 1163 571 1115 592 1136 b 544 1210 592 1189 571 1210 b 497 1163 518 1210 497 1189 z "},"Ï":{"ha":381,"x_min":0,"x_max":0,"o":"m 146 18 l 146 954 b 164 972 146 965 153 972 l 164 972 b 181 954 172 972 181 965 l 181 954 l 181 18 b 164 0 181 7 172 0 l 164 0 b 146 18 153 0 146 7 l 146 18 z m -11 1163 b 36 1115 -11 1136 10 1115 b 82 1163 63 1115 82 1136 b 36 1210 82 1189 63 1210 b -11 1163 10 1210 -11 1189 z m 242 1163 b 289 1115 242 1136 263 1115 b 336 1163 315 1115 336 1136 b 289 1210 336 1189 315 1210 b 242 1163 263 1210 242 1189 z "},"Ö":{"ha":1181,"x_min":0,"x_max":0,"o":"m 101 485 b 575 986 103 763 313 986 l 575 986 b 1050 485 838 986 1047 763 l 1050 485 b 575 -18 1047 206 838 -18 l 575 -18 b 101 485 313 -18 103 206 l 101 485 z m 139 485 b 575 19 139 228 336 22 l 575 19 b 1011 485 813 22 1010 228 l 1011 485 b 575 950 1010 743 813 950 l 575 950 b 139 485 336 950 139 743 l 139 485 z m 401 1163 b 449 1115 401 1136 422 1115 b 494 1163 475 1115 494 1136 b 449 1210 494 1189 475 1210 b 401 1163 422 1210 401 1189 z m 654 1163 b 701 1115 654 1136 675 1115 b 749 1163 728 1115 749 1136 b 701 1210 749 1189 728 1210 b 654 1163 675 1210 654 1189 z "},"Ü":{"ha":1056,"x_min":0,"x_max":0,"o":"m 129 390 l 129 954 b 147 972 129 964 136 972 b 164 954 157 972 164 964 l 164 390 b 518 35 164 193 322 38 b 872 390 713 38 871 193 l 872 954 b 890 972 872 964 881 972 b 908 954 899 972 908 964 l 908 390 b 518 0 908 174 732 0 b 129 390 303 0 129 174 z m 344 1163 b 392 1115 344 1136 365 1115 b 438 1163 418 1115 438 1136 b 392 1210 438 1189 418 1210 b 344 1163 365 1210 344 1189 z m 597 1163 b 644 1115 597 1136 618 1115 b 692 1163 671 1115 692 1136 b 644 1210 692 1189 671 1210 b 597 1163 618 1210 597 1189 z "},"ÿ":{"ha":817,"x_min":0,"x_max":0,"o":"m 72 275 l 72 663 b 90 681 72 672 79 681 b 107 663 99 681 107 672 l 107 275 b 346 38 107 144 214 38 b 581 265 472 38 575 139 l 581 663 l 581 665 b 583 672 581 667 582 669 b 585 674 583 672 583 674 l 589 678 b 599 681 592 679 594 681 l 601 681 b 606 679 603 681 604 679 l 610 675 b 611 674 611 675 611 674 b 615 663 614 671 615 667 l 615 39 b 296 -281 615 -136 474 -281 b 157 -247 246 -281 199 -268 b 150 -224 147 -243 144 -233 b 171 -215 153 -215 164 -212 b 296 -246 210 -235 250 -246 b 581 39 454 -246 581 -118 l 581 142 b 346 3 536 58 447 3 b 72 275 194 3 72 125 z m 168 839 b 215 792 168 813 189 792 b 261 839 242 792 261 813 b 215 886 261 865 242 886 b 168 839 189 886 168 865 z m 421 839 b 468 792 421 813 442 792 b 515 839 494 792 515 813 b 468 886 515 865 494 886 b 421 839 442 886 421 865 z "},"ü":{"ha":851,"x_min":0,"x_max":0,"o":"m 115 275 l 115 663 b 133 681 115 672 122 681 l 133 681 b 150 663 142 681 150 672 l 150 663 l 150 275 b 388 35 150 142 257 35 l 388 35 b 626 275 519 35 626 142 l 626 275 l 626 663 b 644 681 626 672 636 681 l 644 681 b 663 663 654 681 663 672 l 663 663 l 663 275 b 388 0 663 122 539 0 l 388 0 b 115 275 238 0 115 122 l 115 275 z m 217 839 b 264 792 217 813 238 792 b 310 839 290 792 310 813 b 264 886 310 865 290 886 b 217 839 238 886 217 865 z m 469 839 b 517 792 469 813 490 792 b 564 839 543 792 564 813 b 517 886 564 865 543 886 b 469 839 490 886 469 865 z "},"ö":{"ha":889,"x_min":0,"x_max":0,"o":"m 81 340 b 401 681 81 528 224 681 l 401 681 b 724 340 579 681 724 528 l 724 340 b 401 0 724 154 579 0 l 401 0 b 81 340 224 0 81 154 l 81 340 z m 115 340 b 401 35 115 172 244 35 l 401 35 b 689 340 558 35 689 172 l 689 340 b 401 646 689 510 558 646 l 401 646 b 115 340 244 646 115 510 l 115 340 z m 228 839 b 275 792 228 813 249 792 b 321 839 301 792 321 813 b 275 886 321 865 301 886 b 228 839 249 886 228 865 z m 481 839 b 528 792 481 813 501 792 b 575 839 554 792 575 813 b 528 886 575 865 554 886 b 481 839 501 886 481 865 z "},"ï":{"ha":390,"x_min":0,"x_max":0,"o":"m 149 18 l 149 664 b 167 681 149 675 156 681 b 183 664 175 681 183 675 l 183 18 b 167 0 183 8 175 0 b 149 18 156 0 149 8 z m -8 839 b 39 792 -8 813 13 792 b 85 839 65 792 85 813 b 39 886 85 865 65 886 b -8 839 13 886 -8 865 z m 244 839 b 292 792 244 813 265 792 b 339 839 318 792 339 813 b 292 886 339 865 318 886 b 244 839 265 886 244 865 z "},"î":{"ha":390,"x_min":0,"x_max":0,"o":"m 147 18 l 147 664 b 165 681 147 675 154 681 b 182 664 174 681 182 675 l 182 18 b 165 0 182 8 174 0 b 147 18 154 0 147 8 z m 163 926 l 260 822 b 297 796 268 814 282 796 b 315 799 310 796 315 792 b 308 815 315 804 314 808 l 208 938 b 169 963 196 953 186 963 l 158 963 b 119 938 142 963 132 953 l 19 815 b 13 799 14 808 13 804 b 32 796 13 792 21 796 b 67 821 46 796 60 814 z "},"í":{"ha":390,"x_min":0,"x_max":0,"o":"m 132 18 b 150 0 132 8 139 0 b 167 18 158 0 167 8 l 167 664 b 150 681 167 675 158 681 b 132 664 139 681 132 675 z m 79 796 b 113 817 93 801 97 800 l 211 924 b 225 949 219 932 229 942 b 200 969 221 956 226 969 b 161 944 183 969 172 961 l 75 815 b 69 800 72 811 69 806 b 79 796 69 793 71 792 z "},"ì":{"ha":390,"x_min":0,"x_max":0,"o":"m 132 18 l 132 664 b 150 681 132 675 139 681 b 167 664 158 681 167 675 l 167 18 b 150 0 167 8 158 0 b 132 18 139 0 132 8 z m 219 796 b 229 800 228 792 229 793 b 224 815 229 806 226 811 l 138 944 b 99 969 126 961 115 969 b 74 949 72 969 78 956 b 88 924 69 942 79 932 l 186 817 b 219 796 201 800 206 801 z "},"ë":{"ha":811,"x_min":0,"x_max":0,"o":"m 415 0 b 85 340 233 3 88 154 b 415 681 88 529 233 681 b 742 367 589 681 729 543 l 742 365 l 742 363 l 742 361 b 725 344 740 353 733 344 l 119 344 l 119 340 b 415 35 119 174 251 36 b 660 174 518 35 608 90 b 685 178 665 182 675 182 b 689 154 692 174 694 163 b 415 0 631 64 529 0 z m 415 644 b 121 378 264 644 139 529 l 707 378 b 415 644 689 529 564 644 z m 239 839 b 286 792 239 813 260 792 b 332 839 313 792 332 813 b 286 886 332 865 313 886 b 239 839 260 886 239 865 z m 492 839 b 539 792 492 813 513 792 b 586 839 565 792 586 813 b 539 886 586 865 565 886 b 492 839 513 886 492 865 z "},"Å":{"ha":897,"x_min":0,"x_max":0,"o":"m 800 26 l 464 922 b 542 1028 511 936 542 979 l 542 1029 b 429 1138 542 1092 489 1138 b 317 1029 369 1138 317 1096 l 317 1028 b 399 921 317 976 351 933 l 64 26 b 72 3 60 17 64 7 b 79 1 75 3 78 1 b 94 14 86 1 93 7 l 188 263 l 674 263 l 767 14 b 785 1 771 7 778 1 b 790 3 786 1 788 3 b 800 26 799 7 804 17 z m 350 1026 l 350 1028 b 429 1107 350 1068 383 1107 b 508 1028 475 1107 508 1068 l 508 1026 b 453 951 508 993 486 961 b 429 947 446 949 438 947 b 410 950 422 947 417 949 b 350 1026 375 958 350 992 z m 201 299 l 431 907 l 660 299 l 201 299 z "},"ä":{"ha":797,"x_min":0,"x_max":0,"o":"m 713 681 b 694 663 701 681 694 671 l 694 493 b 408 681 642 603 533 681 b 88 340 231 681 88 526 b 408 0 88 154 231 0 b 694 188 533 0 642 76 l 694 18 b 713 0 694 7 701 0 b 729 18 722 0 729 7 l 729 663 b 713 681 729 671 722 681 z m 408 35 b 122 340 251 35 122 171 b 408 644 122 508 251 644 b 694 340 565 644 694 508 b 408 35 694 171 565 35 z m 235 851 b 282 804 235 825 256 804 b 328 851 308 804 328 825 b 282 899 328 878 308 899 b 235 851 256 899 235 878 z m 488 851 b 535 804 488 825 508 804 b 582 851 561 804 582 825 b 535 899 582 878 561 899 b 488 851 508 899 488 878 z "},"Œ":{"ha":2004,"x_min":0,"x_max":0,"o":"m 1557 0 b 1574 18 1567 0 1574 8 b 1557 35 1574 28 1567 35 l 1057 35 l 1057 469 l 1497 469 b 1514 488 1507 469 1514 476 b 1497 504 1514 496 1507 504 l 1057 504 l 1057 938 l 1557 938 b 1574 954 1567 938 1574 944 b 1557 972 1574 964 1567 972 l 1039 972 b 1022 954 1028 971 1022 963 l 1022 651 b 575 986 956 847 782 986 b 101 485 313 986 103 763 b 575 -18 103 206 313 -18 b 1022 317 782 -18 956 121 l 1022 18 b 1039 0 1022 8 1028 0 z m 139 485 b 575 950 139 743 336 950 b 1011 485 813 950 1010 743 b 575 19 1010 228 813 22 b 139 485 336 22 139 228 z "}}}
